<?xml version="1.0" encoding="us-ascii" standalone="no"?><svg xmlns="http://www.w3.org/2000/svg" xmlns:xlink="http://www.w3.org/1999/xlink" contentStyleType="text/css" height="1032px" preserveAspectRatio="none" style="width:2033px;height:1032px;background:#FFFFFF;" version="1.1" viewBox="0 0 2033 1032" width="2033px" zoomAndPan="magnify"><defs/><g><!--cluster model--><g id="cluster_model"><path d="M8.5,6 L57.5,6 A3.75,3.75 0 0 1 60,8.5 L67,28.2969 L734.5,28.2969 A2.5,2.5 0 0 1 737,30.7969 L737,742.22 A2.5,2.5 0 0 1 734.5,744.72 L8.5,744.72 A2.5,2.5 0 0 1 6,742.22 L6,8.5 A2.5,2.5 0 0 1 8.5,6 " fill="none" style="stroke:#000000;stroke-width:1.5;"/><line style="stroke:#000000;stroke-width:1.5;" x1="6" x2="67" y1="28.2969" y2="28.2969"/><text fill="#000000" font-family="sans-serif" font-size="14" font-weight="bold" lengthAdjust="spacing" textLength="48" x="10" y="20.9951">model</text></g><!--cluster server--><g id="cluster_server"><path d="M763.5,111.93 L816.5,111.93 A3.75,3.75 0 0 1 819,114.43 L826,134.2269 L2023.5,134.2269 A2.5,2.5 0 0 1 2026,136.7269 L2026,1023.41 A2.5,2.5 0 0 1 2023.5,1025.91 L763.5,1025.91 A2.5,2.5 0 0 1 761,1023.41 L761,114.43 A2.5,2.5 0 0 1 763.5,111.93 " fill="none" style="stroke:#000000;stroke-width:1.5;"/><line style="stroke:#000000;stroke-width:1.5;" x1="761" x2="826" y1="134.2269" y2="134.2269"/><text fill="#000000" font-family="sans-serif" font-size="14" font-weight="bold" lengthAdjust="spacing" textLength="52" x="765" y="126.9251">server</text></g><!--class Usuario--><g id="elem_Usuario"><rect codeLine="3" fill="#F1F1F1" height="80.5938" id="Usuario" rx="2.5" ry="2.5" style="stroke:#181818;stroke-width:0.5;" width="125" x="21.5" y="146.93"/><ellipse cx="54.95" cy="162.93" fill="#ADD1B2" rx="11" ry="11" style="stroke:#181818;stroke-width:1.0;"/><path d="M57.9188,168.5706 Q57.3406,168.8675 56.7,169.0081 Q56.0594,169.1644 55.3563,169.1644 Q52.8563,169.1644 51.5281,167.5238 Q50.2156,165.8675 50.2156,162.7425 Q50.2156,159.6175 51.5281,157.9613 Q52.8563,156.305 55.3563,156.305 Q56.0594,156.305 56.7,156.4613 Q57.3563,156.6175 57.9188,156.9144 L57.9188,159.6331 Q57.2938,159.055 56.7,158.7894 Q56.1063,158.5081 55.4813,158.5081 Q54.1375,158.5081 53.45,159.5863 Q52.7625,160.6488 52.7625,162.7425 Q52.7625,164.8363 53.45,165.9144 Q54.1375,166.9769 55.4813,166.9769 Q56.1063,166.9769 56.7,166.7113 Q57.2938,166.43 57.9188,165.8519 L57.9188,168.5706 Z " fill="#000000"/><text fill="#000000" font-family="sans-serif" font-size="14" lengthAdjust="spacing" textLength="52" x="73.05" y="167.7767">Usuario</text><line style="stroke:#181818;stroke-width:0.5;" x1="22.5" x2="145.5" y1="178.93" y2="178.93"/><text fill="#000000" font-family="sans-serif" font-size="14" lengthAdjust="spacing" textLength="113" x="27.5" y="195.9251">string username</text><text fill="#000000" font-family="sans-serif" font-size="14" lengthAdjust="spacing" textLength="110" x="27.5" y="212.222">string password</text><line style="stroke:#181818;stroke-width:0.5;" x1="22.5" x2="145.5" y1="219.5238" y2="219.5238"/></g><!--class ContactoEmergencia--><g id="elem_ContactoEmergencia"><rect codeLine="8" fill="#F1F1F1" height="113.1875" id="ContactoEmergencia" rx="2.5" ry="2.5" style="stroke:#181818;stroke-width:0.5;" width="177" x="181.5" y="130.64"/><ellipse cx="196.5" cy="146.64" fill="#ADD1B2" rx="11" ry="11" style="stroke:#181818;stroke-width:1.0;"/><path d="M199.4688,152.2806 Q198.8906,152.5775 198.25,152.7181 Q197.6094,152.8744 196.9063,152.8744 Q194.4063,152.8744 193.0781,151.2338 Q191.7656,149.5775 191.7656,146.4525 Q191.7656,143.3275 193.0781,141.6713 Q194.4063,140.015 196.9063,140.015 Q197.6094,140.015 198.25,140.1713 Q198.9063,140.3275 199.4688,140.6244 L199.4688,143.3431 Q198.8438,142.765 198.25,142.4994 Q197.6563,142.2181 197.0313,142.2181 Q195.6875,142.2181 195,143.2963 Q194.3125,144.3588 194.3125,146.4525 Q194.3125,148.5463 195,149.6244 Q195.6875,150.6869 197.0313,150.6869 Q197.6563,150.6869 198.25,150.4213 Q198.8438,150.14 199.4688,149.5619 L199.4688,152.2806 Z " fill="#000000"/><text fill="#000000" font-family="sans-serif" font-size="14" lengthAdjust="spacing" textLength="145" x="210.5" y="151.4867">ContactoEmergencia</text><line style="stroke:#181818;stroke-width:0.5;" x1="182.5" x2="357.5" y1="162.64" y2="162.64"/><text fill="#000000" font-family="sans-serif" font-size="14" lengthAdjust="spacing" textLength="101" x="187.5" y="179.6351">int id_contacto</text><text fill="#000000" font-family="sans-serif" font-size="14" lengthAdjust="spacing" textLength="97" x="187.5" y="195.932">string nombre</text><text fill="#000000" font-family="sans-serif" font-size="14" lengthAdjust="spacing" textLength="122" x="187.5" y="212.2289">string parentesco</text><text fill="#000000" font-family="sans-serif" font-size="14" lengthAdjust="spacing" textLength="100" x="187.5" y="228.5257">string telefono</text><line style="stroke:#181818;stroke-width:0.5;" x1="182.5" x2="357.5" y1="235.8275" y2="235.8275"/></g><!--class Paciente--><g id="elem_Paciente"><rect codeLine="15" fill="#F1F1F1" height="292.4531" id="Paciente" rx="2.5" ry="2.5" style="stroke:#181818;stroke-width:0.5;" width="327" x="393.5" y="41"/><ellipse cx="522.75" cy="57" fill="#ADD1B2" rx="11" ry="11" style="stroke:#181818;stroke-width:1.0;"/><path d="M525.7188,62.6406 Q525.1406,62.9375 524.5,63.0781 Q523.8594,63.2344 523.1563,63.2344 Q520.6563,63.2344 519.3281,61.5938 Q518.0156,59.9375 518.0156,56.8125 Q518.0156,53.6875 519.3281,52.0313 Q520.6563,50.375 523.1563,50.375 Q523.8594,50.375 524.5,50.5313 Q525.1563,50.6875 525.7188,50.9844 L525.7188,53.7031 Q525.0938,53.125 524.5,52.8594 Q523.9063,52.5781 523.2813,52.5781 Q521.9375,52.5781 521.25,53.6563 Q520.5625,54.7188 520.5625,56.8125 Q520.5625,58.9063 521.25,59.9844 Q521.9375,61.0469 523.2813,61.0469 Q523.9063,61.0469 524.5,60.7813 Q525.0938,60.5 525.7188,59.9219 L525.7188,62.6406 Z " fill="#000000"/><text fill="#000000" font-family="sans-serif" font-size="14" lengthAdjust="spacing" textLength="60" x="543.25" y="61.8467">Paciente</text><line style="stroke:#181818;stroke-width:0.5;" x1="394.5" x2="719.5" y1="73" y2="73"/><text fill="#000000" font-family="sans-serif" font-size="14" lengthAdjust="spacing" textLength="98" x="399.5" y="89.9951">varchar carnet</text><text fill="#000000" font-family="sans-serif" font-size="14" lengthAdjust="spacing" textLength="158" x="399.5" y="106.292">boolean es_estudiante</text><text fill="#000000" font-family="sans-serif" font-size="14" lengthAdjust="spacing" textLength="116" x="399.5" y="122.5889">varchar nombres</text><text fill="#000000" font-family="sans-serif" font-size="14" lengthAdjust="spacing" textLength="115" x="399.5" y="138.8857">varchar apellidos</text><text fill="#000000" font-family="sans-serif" font-size="14" lengthAdjust="spacing" textLength="67" x="399.5" y="155.1826">char sexo</text><text fill="#000000" font-family="sans-serif" font-size="14" lengthAdjust="spacing" textLength="99" x="399.5" y="171.4795">varchar correo</text><text fill="#000000" font-family="sans-serif" font-size="14" lengthAdjust="spacing" textLength="111" x="399.5" y="187.7764">varchar telefono</text><text fill="#000000" font-family="sans-serif" font-size="14" lengthAdjust="spacing" textLength="103" x="399.5" y="204.0732">varchar seguro</text><text fill="#000000" font-family="sans-serif" font-size="14" lengthAdjust="spacing" textLength="157" x="399.5" y="220.3701">varchar carrera_o_dept</text><text fill="#000000" font-family="sans-serif" font-size="14" lengthAdjust="spacing" textLength="156" x="399.5" y="236.667">date fecha_nacimiento</text><text fill="#000000" font-family="sans-serif" font-size="14" lengthAdjust="spacing" textLength="135" x="399.5" y="252.9639">varchar tipo_sangre</text><text fill="#000000" font-family="sans-serif" font-size="14" lengthAdjust="spacing" textLength="117" x="399.5" y="269.2607">varchar direccion</text><text fill="#000000" font-family="sans-serif" font-size="14" lengthAdjust="spacing" textLength="143" x="399.5" y="285.5576">text nota_importante</text><text fill="#000000" font-family="sans-serif" font-size="14" lengthAdjust="spacing" textLength="315" x="399.5" y="301.8545">ContactoEmergencia contacto_emergencia_1</text><text fill="#000000" font-family="sans-serif" font-size="14" lengthAdjust="spacing" textLength="315" x="399.5" y="318.1514">ContactoEmergencia contacto_emergencia_2</text><line style="stroke:#181818;stroke-width:0.5;" x1="394.5" x2="719.5" y1="325.4531" y2="325.4531"/></g><!--class Antecedente--><g id="elem_Antecedente"><rect codeLine="33" fill="#F1F1F1" height="96.8906" id="Antecedente" rx="2.5" ry="2.5" style="stroke:#181818;stroke-width:0.5;" width="162" x="33" y="393.46"/><ellipse cx="66" cy="409.46" fill="#ADD1B2" rx="11" ry="11" style="stroke:#181818;stroke-width:1.0;"/><path d="M68.9688,415.1006 Q68.3906,415.3975 67.75,415.5381 Q67.1094,415.6944 66.4063,415.6944 Q63.9063,415.6944 62.5781,414.0538 Q61.2656,412.3975 61.2656,409.2725 Q61.2656,406.1475 62.5781,404.4913 Q63.9063,402.835 66.4063,402.835 Q67.1094,402.835 67.75,402.9913 Q68.4063,403.1475 68.9688,403.4444 L68.9688,406.1631 Q68.3438,405.585 67.75,405.3194 Q67.1563,405.0381 66.5313,405.0381 Q65.1875,405.0381 64.5,406.1163 Q63.8125,407.1788 63.8125,409.2725 Q63.8125,411.3663 64.5,412.4444 Q65.1875,413.5069 66.5313,413.5069 Q67.1563,413.5069 67.75,413.2413 Q68.3438,412.96 68.9688,412.3819 L68.9688,415.1006 Z " fill="#000000"/><text fill="#000000" font-family="sans-serif" font-size="14" lengthAdjust="spacing" textLength="90" x="84" y="414.3067">Antecedente</text><line style="stroke:#181818;stroke-width:0.5;" x1="34" x2="194" y1="425.46" y2="425.46"/><text fill="#000000" font-family="sans-serif" font-size="14" lengthAdjust="spacing" textLength="129" x="39" y="442.4551">int id_antecedente</text><text fill="#000000" font-family="sans-serif" font-size="14" lengthAdjust="spacing" textLength="150" x="39" y="458.752">TipoAntecedente tipo</text><text fill="#000000" font-family="sans-serif" font-size="14" lengthAdjust="spacing" textLength="123" x="39" y="475.0489">string descripcion</text><line style="stroke:#181818;stroke-width:0.5;" x1="34" x2="194" y1="482.3506" y2="482.3506"/></g><!--class TipoAntecedente--><g id="elem_TipoAntecedente"><rect codeLine="39" fill="#F1F1F1" height="80.5938" id="TipoAntecedente" rx="2.5" ry="2.5" style="stroke:#181818;stroke-width:0.5;" width="152" x="230" y="401.61"/><ellipse cx="245" cy="417.61" fill="#ADD1B2" rx="11" ry="11" style="stroke:#181818;stroke-width:1.0;"/><path d="M247.9688,423.2506 Q247.3906,423.5475 246.75,423.6881 Q246.1094,423.8444 245.4063,423.8444 Q242.9063,423.8444 241.5781,422.2038 Q240.2656,420.5475 240.2656,417.4225 Q240.2656,414.2975 241.5781,412.6413 Q242.9063,410.985 245.4063,410.985 Q246.1094,410.985 246.75,411.1413 Q247.4063,411.2975 247.9688,411.5944 L247.9688,414.3131 Q247.3438,413.735 246.75,413.4694 Q246.1563,413.1881 245.5313,413.1881 Q244.1875,413.1881 243.5,414.2663 Q242.8125,415.3288 242.8125,417.4225 Q242.8125,419.5163 243.5,420.5944 Q244.1875,421.6569 245.5313,421.6569 Q246.1563,421.6569 246.75,421.3913 Q247.3438,421.11 247.9688,420.5319 L247.9688,423.2506 Z " fill="#000000"/><text fill="#000000" font-family="sans-serif" font-size="14" lengthAdjust="spacing" textLength="120" x="259" y="422.4567">TipoAntecedente</text><line style="stroke:#181818;stroke-width:0.5;" x1="231" x2="381" y1="433.61" y2="433.61"/><text fill="#000000" font-family="sans-serif" font-size="14" lengthAdjust="spacing" textLength="66" x="236" y="450.6051">int id_tipo</text><text fill="#000000" font-family="sans-serif" font-size="14" lengthAdjust="spacing" textLength="123" x="236" y="466.902">string descripcion</text><line style="stroke:#181818;stroke-width:0.5;" x1="231" x2="381" y1="474.2038" y2="474.2038"/></g><!--class Tratamiento--><g id="elem_Tratamiento"><rect codeLine="44" fill="#F1F1F1" height="80.5938" id="Tratamiento" rx="2.5" ry="2.5" style="stroke:#181818;stroke-width:0.5;" width="135" x="416.5" y="401.61"/><ellipse cx="440.5" cy="417.61" fill="#ADD1B2" rx="11" ry="11" style="stroke:#181818;stroke-width:1.0;"/><path d="M443.4688,423.2506 Q442.8906,423.5475 442.25,423.6881 Q441.6094,423.8444 440.9063,423.8444 Q438.4063,423.8444 437.0781,422.2038 Q435.7656,420.5475 435.7656,417.4225 Q435.7656,414.2975 437.0781,412.6413 Q438.4063,410.985 440.9063,410.985 Q441.6094,410.985 442.25,411.1413 Q442.9063,411.2975 443.4688,411.5944 L443.4688,414.3131 Q442.8438,413.735 442.25,413.4694 Q441.6563,413.1881 441.0313,413.1881 Q439.6875,413.1881 439,414.2663 Q438.3125,415.3288 438.3125,417.4225 Q438.3125,419.5163 439,420.5944 Q439.6875,421.6569 441.0313,421.6569 Q441.6563,421.6569 442.25,421.3913 Q442.8438,421.11 443.4688,420.5319 L443.4688,423.2506 Z " fill="#000000"/><text fill="#000000" font-family="sans-serif" font-size="14" lengthAdjust="spacing" textLength="83" x="456.5" y="422.4567">Tratamiento</text><line style="stroke:#181818;stroke-width:0.5;" x1="417.5" x2="550.5" y1="433.61" y2="433.61"/><text fill="#000000" font-family="sans-serif" font-size="14" lengthAdjust="spacing" textLength="119" x="422.5" y="450.6051">int id_tratamiento</text><text fill="#000000" font-family="sans-serif" font-size="14" lengthAdjust="spacing" textLength="123" x="422.5" y="466.902">string descripcion</text><line style="stroke:#181818;stroke-width:0.5;" x1="417.5" x2="550.5" y1="474.2038" y2="474.2038"/></g><!--class Visita--><g id="elem_Visita"><rect codeLine="49" fill="#F1F1F1" height="162.0781" id="Visita" rx="2.5" ry="2.5" style="stroke:#181818;stroke-width:0.5;" width="207" x="22.5" y="558.5"/><ellipse cx="103.75" cy="574.5" fill="#ADD1B2" rx="11" ry="11" style="stroke:#181818;stroke-width:1.0;"/><path d="M106.7188,580.1406 Q106.1406,580.4375 105.5,580.5781 Q104.8594,580.7344 104.1563,580.7344 Q101.6563,580.7344 100.3281,579.0938 Q99.0156,577.4375 99.0156,574.3125 Q99.0156,571.1875 100.3281,569.5313 Q101.6563,567.875 104.1563,567.875 Q104.8594,567.875 105.5,568.0313 Q106.1563,568.1875 106.7188,568.4844 L106.7188,571.2031 Q106.0938,570.625 105.5,570.3594 Q104.9063,570.0781 104.2813,570.0781 Q102.9375,570.0781 102.25,571.1563 Q101.5625,572.2188 101.5625,574.3125 Q101.5625,576.4063 102.25,577.4844 Q102.9375,578.5469 104.2813,578.5469 Q104.9063,578.5469 105.5,578.2813 Q106.0938,578 106.7188,577.4219 L106.7188,580.1406 Z " fill="#000000"/><text fill="#000000" font-family="sans-serif" font-size="14" lengthAdjust="spacing" textLength="36" x="124.25" y="579.3467">Visita</text><line style="stroke:#181818;stroke-width:0.5;" x1="23.5" x2="228.5" y1="590.5" y2="590.5"/><text fill="#000000" font-family="sans-serif" font-size="14" lengthAdjust="spacing" textLength="74" x="28.5" y="607.4951">int id_visita</text><text fill="#000000" font-family="sans-serif" font-size="14" lengthAdjust="spacing" textLength="124" x="28.5" y="623.792">Paciente paciente</text><text fill="#000000" font-family="sans-serif" font-size="14" lengthAdjust="spacing" textLength="89" x="28.5" y="640.0889">string motivo</text><text fill="#000000" font-family="sans-serif" font-size="14" lengthAdjust="spacing" textLength="115" x="28.5" y="656.3857">timestamp fecha</text><text fill="#000000" font-family="sans-serif" font-size="14" lengthAdjust="spacing" textLength="110" x="28.5" y="672.6826">text diagnostico</text><text fill="#000000" font-family="sans-serif" font-size="14" lengthAdjust="spacing" textLength="99" x="28.5" y="688.9795">text referencia</text><text fill="#000000" font-family="sans-serif" font-size="14" lengthAdjust="spacing" textLength="195" x="28.5" y="705.2764">ExamenFisico examen_fisico</text><line style="stroke:#181818;stroke-width:0.5;" x1="23.5" x2="228.5" y1="712.5781" y2="712.5781"/></g><!--class ExamenFisico--><g id="elem_ExamenFisico"><rect codeLine="59" fill="#F1F1F1" height="178.375" id="ExamenFisico" rx="2.5" ry="2.5" style="stroke:#181818;stroke-width:0.5;" width="189" x="264.5" y="550.35"/><ellipse cx="307.85" cy="566.35" fill="#ADD1B2" rx="11" ry="11" style="stroke:#181818;stroke-width:1.0;"/><path d="M310.8188,571.9906 Q310.2406,572.2875 309.6,572.4281 Q308.9594,572.5844 308.2563,572.5844 Q305.7563,572.5844 304.4281,570.9438 Q303.1156,569.2875 303.1156,566.1625 Q303.1156,563.0375 304.4281,561.3813 Q305.7563,559.725 308.2563,559.725 Q308.9594,559.725 309.6,559.8813 Q310.2563,560.0375 310.8188,560.3344 L310.8188,563.0531 Q310.1938,562.475 309.6,562.2094 Q309.0063,561.9281 308.3813,561.9281 Q307.0375,561.9281 306.35,563.0063 Q305.6625,564.0688 305.6625,566.1625 Q305.6625,568.2563 306.35,569.3344 Q307.0375,570.3969 308.3813,570.3969 Q309.0063,570.3969 309.6,570.1313 Q310.1938,569.85 310.8188,569.2719 L310.8188,571.9906 Z " fill="#000000"/><text fill="#000000" font-family="sans-serif" font-size="14" lengthAdjust="spacing" textLength="94" x="328.15" y="571.1967">ExamenFisico</text><line style="stroke:#181818;stroke-width:0.5;" x1="265.5" x2="452.5" y1="582.35" y2="582.35"/><text fill="#000000" font-family="sans-serif" font-size="14" lengthAdjust="spacing" textLength="137" x="270.5" y="599.3451">int id_examen_fisico</text><text fill="#000000" font-family="sans-serif" font-size="14" lengthAdjust="spacing" textLength="123" x="270.5" y="615.642">string descripcion</text><text fill="#000000" font-family="sans-serif" font-size="14" lengthAdjust="spacing" textLength="177" x="270.5" y="631.9389">int frecuencia_respiratoria</text><text fill="#000000" font-family="sans-serif" font-size="14" lengthAdjust="spacing" textLength="118" x="270.5" y="648.2357">float temperatura</text><text fill="#000000" font-family="sans-serif" font-size="14" lengthAdjust="spacing" textLength="155" x="270.5" y="664.5326">int saturacion_oxigeno</text><text fill="#000000" font-family="sans-serif" font-size="14" lengthAdjust="spacing" textLength="102" x="270.5" y="680.8295">int glucometria</text><text fill="#000000" font-family="sans-serif" font-size="14" lengthAdjust="spacing" textLength="157" x="270.5" y="697.1264">int frecuencia_cardiaca</text><text fill="#000000" font-family="sans-serif" font-size="14" lengthAdjust="spacing" textLength="126" x="270.5" y="713.4232">int presion_arterial</text><line style="stroke:#181818;stroke-width:0.5;" x1="265.5" x2="452.5" y1="720.725" y2="720.725"/></g><!--class LoginRequest--><g id="elem_LoginRequest"><rect codeLine="72" fill="#F1F1F1" height="80.5938" id="LoginRequest" rx="2.5" ry="2.5" style="stroke:#181818;stroke-width:0.5;" width="128" x="813" y="146.93"/><ellipse cx="828" cy="162.93" fill="#ADD1B2" rx="11" ry="11" style="stroke:#181818;stroke-width:1.0;"/><path d="M830.9688,168.5706 Q830.3906,168.8675 829.75,169.0081 Q829.1094,169.1644 828.4063,169.1644 Q825.9063,169.1644 824.5781,167.5238 Q823.2656,165.8675 823.2656,162.7425 Q823.2656,159.6175 824.5781,157.9613 Q825.9063,156.305 828.4063,156.305 Q829.1094,156.305 829.75,156.4613 Q830.4063,156.6175 830.9688,156.9144 L830.9688,159.6331 Q830.3438,159.055 829.75,158.7894 Q829.1563,158.5081 828.5313,158.5081 Q827.1875,158.5081 826.5,159.5863 Q825.8125,160.6488 825.8125,162.7425 Q825.8125,164.8363 826.5,165.9144 Q827.1875,166.9769 828.5313,166.9769 Q829.1563,166.9769 829.75,166.7113 Q830.3438,166.43 830.9688,165.8519 L830.9688,168.5706 Z " fill="#000000"/><text fill="#000000" font-family="sans-serif" font-size="14" lengthAdjust="spacing" textLength="96" x="842" y="167.7767">LoginRequest</text><line style="stroke:#181818;stroke-width:0.5;" x1="814" x2="940" y1="178.93" y2="178.93"/><text fill="#000000" font-family="sans-serif" font-size="14" lengthAdjust="spacing" textLength="113" x="819" y="195.9251">string username</text><text fill="#000000" font-family="sans-serif" font-size="14" lengthAdjust="spacing" textLength="110" x="819" y="212.222">string password</text><line style="stroke:#181818;stroke-width:0.5;" x1="814" x2="940" y1="219.5238" y2="219.5238"/></g><!--class LoginResponse--><g id="elem_LoginResponse"><rect codeLine="76" fill="#F1F1F1" height="64.2969" id="LoginResponse" rx="2.5" ry="2.5" style="stroke:#181818;stroke-width:0.5;" width="140" x="976" y="155.08"/><ellipse cx="991" cy="171.08" fill="#ADD1B2" rx="11" ry="11" style="stroke:#181818;stroke-width:1.0;"/><path d="M993.9688,176.7206 Q993.3906,177.0175 992.75,177.1581 Q992.1094,177.3144 991.4063,177.3144 Q988.9063,177.3144 987.5781,175.6738 Q986.2656,174.0175 986.2656,170.8925 Q986.2656,167.7675 987.5781,166.1113 Q988.9063,164.455 991.4063,164.455 Q992.1094,164.455 992.75,164.6113 Q993.4063,164.7675 993.9688,165.0644 L993.9688,167.7831 Q993.3438,167.205 992.75,166.9394 Q992.1563,166.6581 991.5313,166.6581 Q990.1875,166.6581 989.5,167.7363 Q988.8125,168.7988 988.8125,170.8925 Q988.8125,172.9863 989.5,174.0644 Q990.1875,175.1269 991.5313,175.1269 Q992.1563,175.1269 992.75,174.8613 Q993.3438,174.58 993.9688,174.0019 L993.9688,176.7206 Z " fill="#000000"/><text fill="#000000" font-family="sans-serif" font-size="14" lengthAdjust="spacing" textLength="108" x="1005" y="175.9267">LoginResponse</text><line style="stroke:#181818;stroke-width:0.5;" x1="977" x2="1115" y1="187.08" y2="187.08"/><text fill="#000000" font-family="sans-serif" font-size="14" lengthAdjust="spacing" textLength="83" x="982" y="204.0751">string token</text><line style="stroke:#181818;stroke-width:0.5;" x1="977" x2="1115" y1="211.3769" y2="211.3769"/></g><!--class LogoutRequest--><g id="elem_LogoutRequest"><rect codeLine="80" fill="#F1F1F1" height="64.2969" id="LogoutRequest" rx="2.5" ry="2.5" style="stroke:#181818;stroke-width:0.5;" width="139" x="1151.5" y="155.08"/><ellipse cx="1166.5" cy="171.08" fill="#ADD1B2" rx="11" ry="11" style="stroke:#181818;stroke-width:1.0;"/><path d="M1169.4688,176.7206 Q1168.8906,177.0175 1168.25,177.1581 Q1167.6094,177.3144 1166.9063,177.3144 Q1164.4063,177.3144 1163.0781,175.6738 Q1161.7656,174.0175 1161.7656,170.8925 Q1161.7656,167.7675 1163.0781,166.1113 Q1164.4063,164.455 1166.9063,164.455 Q1167.6094,164.455 1168.25,164.6113 Q1168.9063,164.7675 1169.4688,165.0644 L1169.4688,167.7831 Q1168.8438,167.205 1168.25,166.9394 Q1167.6563,166.6581 1167.0313,166.6581 Q1165.6875,166.6581 1165,167.7363 Q1164.3125,168.7988 1164.3125,170.8925 Q1164.3125,172.9863 1165,174.0644 Q1165.6875,175.1269 1167.0313,175.1269 Q1167.6563,175.1269 1168.25,174.8613 Q1168.8438,174.58 1169.4688,174.0019 L1169.4688,176.7206 Z " fill="#000000"/><text fill="#000000" font-family="sans-serif" font-size="14" lengthAdjust="spacing" textLength="107" x="1180.5" y="175.9267">LogoutRequest</text><line style="stroke:#181818;stroke-width:0.5;" x1="1152.5" x2="1289.5" y1="187.08" y2="187.08"/><text fill="#000000" font-family="sans-serif" font-size="14" lengthAdjust="spacing" textLength="83" x="1157.5" y="204.0751">string token</text><line style="stroke:#181818;stroke-width:0.5;" x1="1152.5" x2="1289.5" y1="211.3769" y2="211.3769"/></g><!--class GetVisitasRequest--><g id="elem_GetVisitasRequest"><rect codeLine="84" fill="#F1F1F1" height="80.5938" id="GetVisitasRequest" rx="2.5" ry="2.5" style="stroke:#181818;stroke-width:0.5;" width="160" x="1326" y="146.93"/><ellipse cx="1341" cy="162.93" fill="#ADD1B2" rx="11" ry="11" style="stroke:#181818;stroke-width:1.0;"/><path d="M1343.9688,168.5706 Q1343.3906,168.8675 1342.75,169.0081 Q1342.1094,169.1644 1341.4063,169.1644 Q1338.9063,169.1644 1337.5781,167.5238 Q1336.2656,165.8675 1336.2656,162.7425 Q1336.2656,159.6175 1337.5781,157.9613 Q1338.9063,156.305 1341.4063,156.305 Q1342.1094,156.305 1342.75,156.4613 Q1343.4063,156.6175 1343.9688,156.9144 L1343.9688,159.6331 Q1343.3438,159.055 1342.75,158.7894 Q1342.1563,158.5081 1341.5313,158.5081 Q1340.1875,158.5081 1339.5,159.5863 Q1338.8125,160.6488 1338.8125,162.7425 Q1338.8125,164.8363 1339.5,165.9144 Q1340.1875,166.9769 1341.5313,166.9769 Q1342.1563,166.9769 1342.75,166.7113 Q1343.3438,166.43 1343.9688,165.8519 L1343.9688,168.5706 Z " fill="#000000"/><text fill="#000000" font-family="sans-serif" font-size="14" lengthAdjust="spacing" textLength="128" x="1355" y="167.7767">GetVisitasRequest</text><line style="stroke:#181818;stroke-width:0.5;" x1="1327" x2="1485" y1="178.93" y2="178.93"/><text fill="#000000" font-family="sans-serif" font-size="14" lengthAdjust="spacing" textLength="100" x="1332" y="195.9251">int paciente_id</text><text fill="#000000" font-family="sans-serif" font-size="14" lengthAdjust="spacing" textLength="83" x="1332" y="212.222">string token</text><line style="stroke:#181818;stroke-width:0.5;" x1="1327" x2="1485" y1="219.5238" y2="219.5238"/></g><!--class GetVisitasResponse--><g id="elem_GetVisitasResponse"><rect codeLine="88" fill="#F1F1F1" height="64.2969" id="GetVisitasResponse" rx="2.5" ry="2.5" style="stroke:#181818;stroke-width:0.5;" width="172" x="1521" y="155.08"/><ellipse cx="1536" cy="171.08" fill="#ADD1B2" rx="11" ry="11" style="stroke:#181818;stroke-width:1.0;"/><path d="M1538.9688,176.7206 Q1538.3906,177.0175 1537.75,177.1581 Q1537.1094,177.3144 1536.4063,177.3144 Q1533.9063,177.3144 1532.5781,175.6738 Q1531.2656,174.0175 1531.2656,170.8925 Q1531.2656,167.7675 1532.5781,166.1113 Q1533.9063,164.455 1536.4063,164.455 Q1537.1094,164.455 1537.75,164.6113 Q1538.4063,164.7675 1538.9688,165.0644 L1538.9688,167.7831 Q1538.3438,167.205 1537.75,166.9394 Q1537.1563,166.6581 1536.5313,166.6581 Q1535.1875,166.6581 1534.5,167.7363 Q1533.8125,168.7988 1533.8125,170.8925 Q1533.8125,172.9863 1534.5,174.0644 Q1535.1875,175.1269 1536.5313,175.1269 Q1537.1563,175.1269 1537.75,174.8613 Q1538.3438,174.58 1538.9688,174.0019 L1538.9688,176.7206 Z " fill="#000000"/><text fill="#000000" font-family="sans-serif" font-size="14" lengthAdjust="spacing" textLength="140" x="1550" y="175.9267">GetVisitasResponse</text><line style="stroke:#181818;stroke-width:0.5;" x1="1522" x2="1692" y1="187.08" y2="187.08"/><text fill="#000000" font-family="sans-serif" font-size="14" lengthAdjust="spacing" textLength="92" x="1527" y="204.0751">Visita[] visitas</text><line style="stroke:#181818;stroke-width:0.5;" x1="1522" x2="1692" y1="211.3769" y2="211.3769"/></g><!--class PostVisitaRequest--><g id="elem_PostVisitaRequest"><rect codeLine="92" fill="#F1F1F1" height="80.5938" id="PostVisitaRequest" rx="2.5" ry="2.5" style="stroke:#181818;stroke-width:0.5;" width="158" x="798" y="401.61"/><ellipse cx="813" cy="417.61" fill="#ADD1B2" rx="11" ry="11" style="stroke:#181818;stroke-width:1.0;"/><path d="M815.9688,423.2506 Q815.3906,423.5475 814.75,423.6881 Q814.1094,423.8444 813.4063,423.8444 Q810.9063,423.8444 809.5781,422.2038 Q808.2656,420.5475 808.2656,417.4225 Q808.2656,414.2975 809.5781,412.6413 Q810.9063,410.985 813.4063,410.985 Q814.1094,410.985 814.75,411.1413 Q815.4063,411.2975 815.9688,411.5944 L815.9688,414.3131 Q815.3438,413.735 814.75,413.4694 Q814.1563,413.1881 813.5313,413.1881 Q812.1875,413.1881 811.5,414.2663 Q810.8125,415.3288 810.8125,417.4225 Q810.8125,419.5163 811.5,420.5944 Q812.1875,421.6569 813.5313,421.6569 Q814.1563,421.6569 814.75,421.3913 Q815.3438,421.11 815.9688,420.5319 L815.9688,423.2506 Z " fill="#000000"/><text fill="#000000" font-family="sans-serif" font-size="14" lengthAdjust="spacing" textLength="126" x="827" y="422.4567">PostVisitaRequest</text><line style="stroke:#181818;stroke-width:0.5;" x1="799" x2="955" y1="433.61" y2="433.61"/><text fill="#000000" font-family="sans-serif" font-size="14" lengthAdjust="spacing" textLength="123" x="804" y="450.6051">Visita nueva_visita</text><text fill="#000000" font-family="sans-serif" font-size="14" lengthAdjust="spacing" textLength="83" x="804" y="466.902">string token</text><line style="stroke:#181818;stroke-width:0.5;" x1="799" x2="955" y1="474.2038" y2="474.2038"/></g><!--class PostVisitaResponse--><g id="elem_PostVisitaResponse"><rect codeLine="96" fill="#F1F1F1" height="64.2969" id="PostVisitaResponse" rx="2.5" ry="2.5" style="stroke:#181818;stroke-width:0.5;" width="170" x="991" y="409.75"/><ellipse cx="1006" cy="425.75" fill="#ADD1B2" rx="11" ry="11" style="stroke:#181818;stroke-width:1.0;"/><path d="M1008.9688,431.3906 Q1008.3906,431.6875 1007.75,431.8281 Q1007.1094,431.9844 1006.4063,431.9844 Q1003.9063,431.9844 1002.5781,430.3438 Q1001.2656,428.6875 1001.2656,425.5625 Q1001.2656,422.4375 1002.5781,420.7813 Q1003.9063,419.125 1006.4063,419.125 Q1007.1094,419.125 1007.75,419.2813 Q1008.4063,419.4375 1008.9688,419.7344 L1008.9688,422.4531 Q1008.3438,421.875 1007.75,421.6094 Q1007.1563,421.3281 1006.5313,421.3281 Q1005.1875,421.3281 1004.5,422.4063 Q1003.8125,423.4688 1003.8125,425.5625 Q1003.8125,427.6563 1004.5,428.7344 Q1005.1875,429.7969 1006.5313,429.7969 Q1007.1563,429.7969 1007.75,429.5313 Q1008.3438,429.25 1008.9688,428.6719 L1008.9688,431.3906 Z " fill="#000000"/><text fill="#000000" font-family="sans-serif" font-size="14" lengthAdjust="spacing" textLength="138" x="1020" y="430.5967">PostVisitaResponse</text><line style="stroke:#181818;stroke-width:0.5;" x1="992" x2="1160" y1="441.75" y2="441.75"/><text fill="#000000" font-family="sans-serif" font-size="14" lengthAdjust="spacing" textLength="74" x="997" y="458.7451">Visita visita</text><line style="stroke:#181818;stroke-width:0.5;" x1="992" x2="1160" y1="466.0469" y2="466.0469"/></g><!--class GetPacienteRequest--><g id="elem_GetPacienteRequest"><rect codeLine="100" fill="#F1F1F1" height="80.5938" id="GetPacienteRequest" rx="2.5" ry="2.5" style="stroke:#181818;stroke-width:0.5;" width="176" x="1196" y="401.61"/><ellipse cx="1211" cy="417.61" fill="#ADD1B2" rx="11" ry="11" style="stroke:#181818;stroke-width:1.0;"/><path d="M1213.9688,423.2506 Q1213.3906,423.5475 1212.75,423.6881 Q1212.1094,423.8444 1211.4063,423.8444 Q1208.9063,423.8444 1207.5781,422.2038 Q1206.2656,420.5475 1206.2656,417.4225 Q1206.2656,414.2975 1207.5781,412.6413 Q1208.9063,410.985 1211.4063,410.985 Q1212.1094,410.985 1212.75,411.1413 Q1213.4063,411.2975 1213.9688,411.5944 L1213.9688,414.3131 Q1213.3438,413.735 1212.75,413.4694 Q1212.1563,413.1881 1211.5313,413.1881 Q1210.1875,413.1881 1209.5,414.2663 Q1208.8125,415.3288 1208.8125,417.4225 Q1208.8125,419.5163 1209.5,420.5944 Q1210.1875,421.6569 1211.5313,421.6569 Q1212.1563,421.6569 1212.75,421.3913 Q1213.3438,421.11 1213.9688,420.5319 L1213.9688,423.2506 Z " fill="#000000"/><text fill="#000000" font-family="sans-serif" font-size="14" lengthAdjust="spacing" textLength="144" x="1225" y="422.4567">GetPacienteRequest</text><line style="stroke:#181818;stroke-width:0.5;" x1="1197" x2="1371" y1="433.61" y2="433.61"/><text fill="#000000" font-family="sans-serif" font-size="14" lengthAdjust="spacing" textLength="100" x="1202" y="450.6051">int paciente_id</text><text fill="#000000" font-family="sans-serif" font-size="14" lengthAdjust="spacing" textLength="83" x="1202" y="466.902">string token</text><line style="stroke:#181818;stroke-width:0.5;" x1="1197" x2="1371" y1="474.2038" y2="474.2038"/></g><!--class GetPacienteResponse--><g id="elem_GetPacienteResponse"><rect codeLine="104" fill="#F1F1F1" height="64.2969" id="GetPacienteResponse" rx="2.5" ry="2.5" style="stroke:#181818;stroke-width:0.5;" width="188" x="1407" y="409.75"/><ellipse cx="1422" cy="425.75" fill="#ADD1B2" rx="11" ry="11" style="stroke:#181818;stroke-width:1.0;"/><path d="M1424.9688,431.3906 Q1424.3906,431.6875 1423.75,431.8281 Q1423.1094,431.9844 1422.4063,431.9844 Q1419.9063,431.9844 1418.5781,430.3438 Q1417.2656,428.6875 1417.2656,425.5625 Q1417.2656,422.4375 1418.5781,420.7813 Q1419.9063,419.125 1422.4063,419.125 Q1423.1094,419.125 1423.75,419.2813 Q1424.4063,419.4375 1424.9688,419.7344 L1424.9688,422.4531 Q1424.3438,421.875 1423.75,421.6094 Q1423.1563,421.3281 1422.5313,421.3281 Q1421.1875,421.3281 1420.5,422.4063 Q1419.8125,423.4688 1419.8125,425.5625 Q1419.8125,427.6563 1420.5,428.7344 Q1421.1875,429.7969 1422.5313,429.7969 Q1423.1563,429.7969 1423.75,429.5313 Q1424.3438,429.25 1424.9688,428.6719 L1424.9688,431.3906 Z " fill="#000000"/><text fill="#000000" font-family="sans-serif" font-size="14" lengthAdjust="spacing" textLength="156" x="1436" y="430.5967">GetPacienteResponse</text><line style="stroke:#181818;stroke-width:0.5;" x1="1408" x2="1594" y1="441.75" y2="441.75"/><text fill="#000000" font-family="sans-serif" font-size="14" lengthAdjust="spacing" textLength="124" x="1413" y="458.7451">Paciente paciente</text><line style="stroke:#181818;stroke-width:0.5;" x1="1408" x2="1594" y1="466.0469" y2="466.0469"/></g><!--class PostPacienteRequest--><g id="elem_PostPacienteRequest"><rect codeLine="108" fill="#F1F1F1" height="80.5938" id="PostPacienteRequest" rx="2.5" ry="2.5" style="stroke:#181818;stroke-width:0.5;" width="186" x="1630" y="401.61"/><ellipse cx="1646.8" cy="417.61" fill="#ADD1B2" rx="11" ry="11" style="stroke:#181818;stroke-width:1.0;"/><path d="M1649.7688,423.2506 Q1649.1906,423.5475 1648.55,423.6881 Q1647.9094,423.8444 1647.2063,423.8444 Q1644.7063,423.8444 1643.3781,422.2038 Q1642.0656,420.5475 1642.0656,417.4225 Q1642.0656,414.2975 1643.3781,412.6413 Q1644.7063,410.985 1647.2063,410.985 Q1647.9094,410.985 1648.55,411.1413 Q1649.2063,411.2975 1649.7688,411.5944 L1649.7688,414.3131 Q1649.1438,413.735 1648.55,413.4694 Q1647.9563,413.1881 1647.3313,413.1881 Q1645.9875,413.1881 1645.3,414.2663 Q1644.6125,415.3288 1644.6125,417.4225 Q1644.6125,419.5163 1645.3,420.5944 Q1645.9875,421.6569 1647.3313,421.6569 Q1647.9563,421.6569 1648.55,421.3913 Q1649.1438,421.11 1649.7688,420.5319 L1649.7688,423.2506 Z " fill="#000000"/><text fill="#000000" font-family="sans-serif" font-size="14" lengthAdjust="spacing" textLength="150" x="1661.2" y="422.4567">PostPacienteRequest</text><line style="stroke:#181818;stroke-width:0.5;" x1="1631" x2="1815" y1="433.61" y2="433.61"/><text fill="#000000" font-family="sans-serif" font-size="14" lengthAdjust="spacing" textLength="174" x="1636" y="450.6051">Paciente nuevo_paciente</text><text fill="#000000" font-family="sans-serif" font-size="14" lengthAdjust="spacing" textLength="83" x="1636" y="466.902">string token</text><line style="stroke:#181818;stroke-width:0.5;" x1="1631" x2="1815" y1="474.2038" y2="474.2038"/></g><!--class PostPacienteResponse--><g id="elem_PostPacienteResponse"><rect codeLine="112" fill="#F1F1F1" height="64.2969" id="PostPacienteResponse" rx="2.5" ry="2.5" style="stroke:#181818;stroke-width:0.5;" width="194" x="780" y="607.39"/><ellipse cx="795" cy="623.39" fill="#ADD1B2" rx="11" ry="11" style="stroke:#181818;stroke-width:1.0;"/><path d="M797.9688,629.0306 Q797.3906,629.3275 796.75,629.4681 Q796.1094,629.6244 795.4063,629.6244 Q792.9063,629.6244 791.5781,627.9838 Q790.2656,626.3275 790.2656,623.2025 Q790.2656,620.0775 791.5781,618.4213 Q792.9063,616.765 795.4063,616.765 Q796.1094,616.765 796.75,616.9213 Q797.4063,617.0775 797.9688,617.3744 L797.9688,620.0931 Q797.3438,619.515 796.75,619.2494 Q796.1563,618.9681 795.5313,618.9681 Q794.1875,618.9681 793.5,620.0463 Q792.8125,621.1088 792.8125,623.2025 Q792.8125,625.2963 793.5,626.3744 Q794.1875,627.4369 795.5313,627.4369 Q796.1563,627.4369 796.75,627.1713 Q797.3438,626.89 797.9688,626.3119 L797.9688,629.0306 Z " fill="#000000"/><text fill="#000000" font-family="sans-serif" font-size="14" lengthAdjust="spacing" textLength="162" x="809" y="628.2367">PostPacienteResponse</text><line style="stroke:#181818;stroke-width:0.5;" x1="781" x2="973" y1="639.39" y2="639.39"/><text fill="#000000" font-family="sans-serif" font-size="14" lengthAdjust="spacing" textLength="124" x="786" y="656.3851">Paciente paciente</text><line style="stroke:#181818;stroke-width:0.5;" x1="781" x2="973" y1="663.6869" y2="663.6869"/></g><!--class GetExamenFisicoRequest--><g id="elem_GetExamenFisicoRequest"><rect codeLine="116" fill="#F1F1F1" height="80.5938" id="GetExamenFisicoRequest" rx="2.5" ry="2.5" style="stroke:#181818;stroke-width:0.5;" width="210" x="1009" y="599.24"/><ellipse cx="1024" cy="615.24" fill="#ADD1B2" rx="11" ry="11" style="stroke:#181818;stroke-width:1.0;"/><path d="M1026.9688,620.8806 Q1026.3906,621.1775 1025.75,621.3181 Q1025.1094,621.4744 1024.4063,621.4744 Q1021.9063,621.4744 1020.5781,619.8338 Q1019.2656,618.1775 1019.2656,615.0525 Q1019.2656,611.9275 1020.5781,610.2713 Q1021.9063,608.615 1024.4063,608.615 Q1025.1094,608.615 1025.75,608.7713 Q1026.4063,608.9275 1026.9688,609.2244 L1026.9688,611.9431 Q1026.3438,611.365 1025.75,611.0994 Q1025.1563,610.8181 1024.5313,610.8181 Q1023.1875,610.8181 1022.5,611.8963 Q1021.8125,612.9588 1021.8125,615.0525 Q1021.8125,617.1463 1022.5,618.2244 Q1023.1875,619.2869 1024.5313,619.2869 Q1025.1563,619.2869 1025.75,619.0213 Q1026.3438,618.74 1026.9688,618.1619 L1026.9688,620.8806 Z " fill="#000000"/><text fill="#000000" font-family="sans-serif" font-size="14" lengthAdjust="spacing" textLength="178" x="1038" y="620.0867">GetExamenFisicoRequest</text><line style="stroke:#181818;stroke-width:0.5;" x1="1010" x2="1218" y1="631.24" y2="631.24"/><text fill="#000000" font-family="sans-serif" font-size="14" lengthAdjust="spacing" textLength="95" x="1015" y="648.2351">int examen_id</text><text fill="#000000" font-family="sans-serif" font-size="14" lengthAdjust="spacing" textLength="83" x="1015" y="664.532">string token</text><line style="stroke:#181818;stroke-width:0.5;" x1="1010" x2="1218" y1="671.8338" y2="671.8338"/></g><!--class GetExamenFisicoResponse--><g id="elem_GetExamenFisicoResponse"><rect codeLine="120" fill="#F1F1F1" height="64.2969" id="GetExamenFisicoResponse" rx="2.5" ry="2.5" style="stroke:#181818;stroke-width:0.5;" width="222" x="1254" y="607.39"/><ellipse cx="1269" cy="623.39" fill="#ADD1B2" rx="11" ry="11" style="stroke:#181818;stroke-width:1.0;"/><path d="M1271.9688,629.0306 Q1271.3906,629.3275 1270.75,629.4681 Q1270.1094,629.6244 1269.4063,629.6244 Q1266.9063,629.6244 1265.5781,627.9838 Q1264.2656,626.3275 1264.2656,623.2025 Q1264.2656,620.0775 1265.5781,618.4213 Q1266.9063,616.765 1269.4063,616.765 Q1270.1094,616.765 1270.75,616.9213 Q1271.4063,617.0775 1271.9688,617.3744 L1271.9688,620.0931 Q1271.3438,619.515 1270.75,619.2494 Q1270.1563,618.9681 1269.5313,618.9681 Q1268.1875,618.9681 1267.5,620.0463 Q1266.8125,621.1088 1266.8125,623.2025 Q1266.8125,625.2963 1267.5,626.3744 Q1268.1875,627.4369 1269.5313,627.4369 Q1270.1563,627.4369 1270.75,627.1713 Q1271.3438,626.89 1271.9688,626.3119 L1271.9688,629.0306 Z " fill="#000000"/><text fill="#000000" font-family="sans-serif" font-size="14" lengthAdjust="spacing" textLength="190" x="1283" y="628.2367">GetExamenFisicoResponse</text><line style="stroke:#181818;stroke-width:0.5;" x1="1255" x2="1475" y1="639.39" y2="639.39"/><text fill="#000000" font-family="sans-serif" font-size="14" lengthAdjust="spacing" textLength="153" x="1260" y="656.3851">ExamenFisico examen</text><line style="stroke:#181818;stroke-width:0.5;" x1="1255" x2="1475" y1="663.6869" y2="663.6869"/></g><!--class PostExamenFisicoRequest--><g id="elem_PostExamenFisicoRequest"><rect codeLine="124" fill="#F1F1F1" height="80.5938" id="PostExamenFisicoRequest" rx="2.5" ry="2.5" style="stroke:#181818;stroke-width:0.5;" width="216" x="1511" y="599.24"/><ellipse cx="1526" cy="615.24" fill="#ADD1B2" rx="11" ry="11" style="stroke:#181818;stroke-width:1.0;"/><path d="M1528.9688,620.8806 Q1528.3906,621.1775 1527.75,621.3181 Q1527.1094,621.4744 1526.4063,621.4744 Q1523.9063,621.4744 1522.5781,619.8338 Q1521.2656,618.1775 1521.2656,615.0525 Q1521.2656,611.9275 1522.5781,610.2713 Q1523.9063,608.615 1526.4063,608.615 Q1527.1094,608.615 1527.75,608.7713 Q1528.4063,608.9275 1528.9688,609.2244 L1528.9688,611.9431 Q1528.3438,611.365 1527.75,611.0994 Q1527.1563,610.8181 1526.5313,610.8181 Q1525.1875,610.8181 1524.5,611.8963 Q1523.8125,612.9588 1523.8125,615.0525 Q1523.8125,617.1463 1524.5,618.2244 Q1525.1875,619.2869 1526.5313,619.2869 Q1527.1563,619.2869 1527.75,619.0213 Q1528.3438,618.74 1528.9688,618.1619 L1528.9688,620.8806 Z " fill="#000000"/><text fill="#000000" font-family="sans-serif" font-size="14" lengthAdjust="spacing" textLength="184" x="1540" y="620.0867">PostExamenFisicoRequest</text><line style="stroke:#181818;stroke-width:0.5;" x1="1512" x2="1726" y1="631.24" y2="631.24"/><text fill="#000000" font-family="sans-serif" font-size="14" lengthAdjust="spacing" textLength="203" x="1517" y="648.2351">ExamenFisico nuevo_examen</text><text fill="#000000" font-family="sans-serif" font-size="14" lengthAdjust="spacing" textLength="83" x="1517" y="664.532">string token</text><line style="stroke:#181818;stroke-width:0.5;" x1="1512" x2="1726" y1="671.8338" y2="671.8338"/></g><!--class PostExamenFisicoResponse--><g id="elem_PostExamenFisicoResponse"><rect codeLine="128" fill="#F1F1F1" height="64.2969" id="PostExamenFisicoResponse" rx="2.5" ry="2.5" style="stroke:#181818;stroke-width:0.5;" width="228" x="1762" y="607.39"/><ellipse cx="1777" cy="623.39" fill="#ADD1B2" rx="11" ry="11" style="stroke:#181818;stroke-width:1.0;"/><path d="M1779.9688,629.0306 Q1779.3906,629.3275 1778.75,629.4681 Q1778.1094,629.6244 1777.4063,629.6244 Q1774.9063,629.6244 1773.5781,627.9838 Q1772.2656,626.3275 1772.2656,623.2025 Q1772.2656,620.0775 1773.5781,618.4213 Q1774.9063,616.765 1777.4063,616.765 Q1778.1094,616.765 1778.75,616.9213 Q1779.4063,617.0775 1779.9688,617.3744 L1779.9688,620.0931 Q1779.3438,619.515 1778.75,619.2494 Q1778.1563,618.9681 1777.5313,618.9681 Q1776.1875,618.9681 1775.5,620.0463 Q1774.8125,621.1088 1774.8125,623.2025 Q1774.8125,625.2963 1775.5,626.3744 Q1776.1875,627.4369 1777.5313,627.4369 Q1778.1563,627.4369 1778.75,627.1713 Q1779.3438,626.89 1779.9688,626.3119 L1779.9688,629.0306 Z " fill="#000000"/><text fill="#000000" font-family="sans-serif" font-size="14" lengthAdjust="spacing" textLength="196" x="1791" y="628.2367">PostExamenFisicoResponse</text><line style="stroke:#181818;stroke-width:0.5;" x1="1763" x2="1989" y1="639.39" y2="639.39"/><text fill="#000000" font-family="sans-serif" font-size="14" lengthAdjust="spacing" textLength="153" x="1768" y="656.3851">ExamenFisico examen</text><line style="stroke:#181818;stroke-width:0.5;" x1="1763" x2="1989" y1="663.6869" y2="663.6869"/></g><!--class GetTratamientoRequest--><g id="elem_GetTratamientoRequest"><rect codeLine="132" fill="#F1F1F1" height="80.5938" id="GetTratamientoRequest" rx="2.5" ry="2.5" style="stroke:#181818;stroke-width:0.5;" width="199" x="777.5" y="788.72"/><ellipse cx="792.5" cy="804.72" fill="#ADD1B2" rx="11" ry="11" style="stroke:#181818;stroke-width:1.0;"/><path d="M795.4688,810.3606 Q794.8906,810.6575 794.25,810.7981 Q793.6094,810.9544 792.9063,810.9544 Q790.4063,810.9544 789.0781,809.3138 Q787.7656,807.6575 787.7656,804.5325 Q787.7656,801.4075 789.0781,799.7513 Q790.4063,798.095 792.9063,798.095 Q793.6094,798.095 794.25,798.2513 Q794.9063,798.4075 795.4688,798.7044 L795.4688,801.4231 Q794.8438,800.845 794.25,800.5794 Q793.6563,800.2981 793.0313,800.2981 Q791.6875,800.2981 791,801.3763 Q790.3125,802.4388 790.3125,804.5325 Q790.3125,806.6263 791,807.7044 Q791.6875,808.7669 793.0313,808.7669 Q793.6563,808.7669 794.25,808.5013 Q794.8438,808.22 795.4688,807.6419 L795.4688,810.3606 Z " fill="#000000"/><text fill="#000000" font-family="sans-serif" font-size="14" lengthAdjust="spacing" textLength="167" x="806.5" y="809.5667">GetTratamientoRequest</text><line style="stroke:#181818;stroke-width:0.5;" x1="778.5" x2="975.5" y1="820.72" y2="820.72"/><text fill="#000000" font-family="sans-serif" font-size="14" lengthAdjust="spacing" textLength="119" x="783.5" y="837.7151">int tratamiento_id</text><text fill="#000000" font-family="sans-serif" font-size="14" lengthAdjust="spacing" textLength="83" x="783.5" y="854.012">string token</text><line style="stroke:#181818;stroke-width:0.5;" x1="778.5" x2="975.5" y1="861.3138" y2="861.3138"/></g><!--class GetTratamientoResponse--><g id="elem_GetTratamientoResponse"><rect codeLine="136" fill="#F1F1F1" height="64.2969" id="GetTratamientoResponse" rx="2.5" ry="2.5" style="stroke:#181818;stroke-width:0.5;" width="211" x="1011.5" y="796.87"/><ellipse cx="1026.5" cy="812.87" fill="#ADD1B2" rx="11" ry="11" style="stroke:#181818;stroke-width:1.0;"/><path d="M1029.4688,818.5106 Q1028.8906,818.8075 1028.25,818.9481 Q1027.6094,819.1044 1026.9063,819.1044 Q1024.4063,819.1044 1023.0781,817.4638 Q1021.7656,815.8075 1021.7656,812.6825 Q1021.7656,809.5575 1023.0781,807.9013 Q1024.4063,806.245 1026.9063,806.245 Q1027.6094,806.245 1028.25,806.4013 Q1028.9063,806.5575 1029.4688,806.8544 L1029.4688,809.5731 Q1028.8438,808.995 1028.25,808.7294 Q1027.6563,808.4481 1027.0313,808.4481 Q1025.6875,808.4481 1025,809.5263 Q1024.3125,810.5888 1024.3125,812.6825 Q1024.3125,814.7763 1025,815.8544 Q1025.6875,816.9169 1027.0313,816.9169 Q1027.6563,816.9169 1028.25,816.6513 Q1028.8438,816.37 1029.4688,815.7919 L1029.4688,818.5106 Z " fill="#000000"/><text fill="#000000" font-family="sans-serif" font-size="14" lengthAdjust="spacing" textLength="179" x="1040.5" y="817.7167">GetTratamientoResponse</text><line style="stroke:#181818;stroke-width:0.5;" x1="1012.5" x2="1221.5" y1="828.87" y2="828.87"/><text fill="#000000" font-family="sans-serif" font-size="14" lengthAdjust="spacing" textLength="166" x="1017.5" y="845.8651">Tratamiento tratamiento</text><line style="stroke:#181818;stroke-width:0.5;" x1="1012.5" x2="1221.5" y1="853.1669" y2="853.1669"/></g><!--class PostTratamientoRequest--><g id="elem_PostTratamientoRequest"><rect codeLine="140" fill="#F1F1F1" height="80.5938" id="PostTratamientoRequest" rx="2.5" ry="2.5" style="stroke:#181818;stroke-width:0.5;" width="228" x="1258" y="788.72"/><ellipse cx="1283.35" cy="804.72" fill="#ADD1B2" rx="11" ry="11" style="stroke:#181818;stroke-width:1.0;"/><path d="M1286.3188,810.3606 Q1285.7406,810.6575 1285.1,810.7981 Q1284.4594,810.9544 1283.7563,810.9544 Q1281.2563,810.9544 1279.9281,809.3138 Q1278.6156,807.6575 1278.6156,804.5325 Q1278.6156,801.4075 1279.9281,799.7513 Q1281.2563,798.095 1283.7563,798.095 Q1284.4594,798.095 1285.1,798.2513 Q1285.7563,798.4075 1286.3188,798.7044 L1286.3188,801.4231 Q1285.6938,800.845 1285.1,800.5794 Q1284.5063,800.2981 1283.8813,800.2981 Q1282.5375,800.2981 1281.85,801.3763 Q1281.1625,802.4388 1281.1625,804.5325 Q1281.1625,806.6263 1281.85,807.7044 Q1282.5375,808.7669 1283.8813,808.7669 Q1284.5063,808.7669 1285.1,808.5013 Q1285.6938,808.22 1286.3188,807.6419 L1286.3188,810.3606 Z " fill="#000000"/><text fill="#000000" font-family="sans-serif" font-size="14" lengthAdjust="spacing" textLength="173" x="1299.65" y="809.5667">PostTratamientoRequest</text><line style="stroke:#181818;stroke-width:0.5;" x1="1259" x2="1485" y1="820.72" y2="820.72"/><text fill="#000000" font-family="sans-serif" font-size="14" lengthAdjust="spacing" textLength="216" x="1264" y="837.7151">Tratamiento nuevo_tratamiento</text><text fill="#000000" font-family="sans-serif" font-size="14" lengthAdjust="spacing" textLength="83" x="1264" y="854.012">string token</text><line style="stroke:#181818;stroke-width:0.5;" x1="1259" x2="1485" y1="861.3138" y2="861.3138"/></g><!--class PostTratamientoResponse--><g id="elem_PostTratamientoResponse"><rect codeLine="144" fill="#F1F1F1" height="64.2969" id="PostTratamientoResponse" rx="2.5" ry="2.5" style="stroke:#181818;stroke-width:0.5;" width="217" x="1521.5" y="796.87"/><ellipse cx="1536.5" cy="812.87" fill="#ADD1B2" rx="11" ry="11" style="stroke:#181818;stroke-width:1.0;"/><path d="M1539.4688,818.5106 Q1538.8906,818.8075 1538.25,818.9481 Q1537.6094,819.1044 1536.9063,819.1044 Q1534.4063,819.1044 1533.0781,817.4638 Q1531.7656,815.8075 1531.7656,812.6825 Q1531.7656,809.5575 1533.0781,807.9013 Q1534.4063,806.245 1536.9063,806.245 Q1537.6094,806.245 1538.25,806.4013 Q1538.9063,806.5575 1539.4688,806.8544 L1539.4688,809.5731 Q1538.8438,808.995 1538.25,808.7294 Q1537.6563,808.4481 1537.0313,808.4481 Q1535.6875,808.4481 1535,809.5263 Q1534.3125,810.5888 1534.3125,812.6825 Q1534.3125,814.7763 1535,815.8544 Q1535.6875,816.9169 1537.0313,816.9169 Q1537.6563,816.9169 1538.25,816.6513 Q1538.8438,816.37 1539.4688,815.7919 L1539.4688,818.5106 Z " fill="#000000"/><text fill="#000000" font-family="sans-serif" font-size="14" lengthAdjust="spacing" textLength="185" x="1550.5" y="817.7167">PostTratamientoResponse</text><line style="stroke:#181818;stroke-width:0.5;" x1="1522.5" x2="1737.5" y1="828.87" y2="828.87"/><text fill="#000000" font-family="sans-serif" font-size="14" lengthAdjust="spacing" textLength="166" x="1527.5" y="845.8651">Tratamiento tratamiento</text><line style="stroke:#181818;stroke-width:0.5;" x1="1522.5" x2="1737.5" y1="853.1669" y2="853.1669"/></g><!--class GetTipoAntecedenteRequest--><g id="elem_GetTipoAntecedenteRequest"><rect codeLine="148" fill="#F1F1F1" height="80.5938" id="GetTipoAntecedenteRequest" rx="2.5" ry="2.5" style="stroke:#181818;stroke-width:0.5;" width="236" x="1774" y="788.72"/><ellipse cx="1789" cy="804.72" fill="#ADD1B2" rx="11" ry="11" style="stroke:#181818;stroke-width:1.0;"/><path d="M1791.9688,810.3606 Q1791.3906,810.6575 1790.75,810.7981 Q1790.1094,810.9544 1789.4063,810.9544 Q1786.9063,810.9544 1785.5781,809.3138 Q1784.2656,807.6575 1784.2656,804.5325 Q1784.2656,801.4075 1785.5781,799.7513 Q1786.9063,798.095 1789.4063,798.095 Q1790.1094,798.095 1790.75,798.2513 Q1791.4063,798.4075 1791.9688,798.7044 L1791.9688,801.4231 Q1791.3438,800.845 1790.75,800.5794 Q1790.1563,800.2981 1789.5313,800.2981 Q1788.1875,800.2981 1787.5,801.3763 Q1786.8125,802.4388 1786.8125,804.5325 Q1786.8125,806.6263 1787.5,807.7044 Q1788.1875,808.7669 1789.5313,808.7669 Q1790.1563,808.7669 1790.75,808.5013 Q1791.3438,808.22 1791.9688,807.6419 L1791.9688,810.3606 Z " fill="#000000"/><text fill="#000000" font-family="sans-serif" font-size="14" lengthAdjust="spacing" textLength="204" x="1803" y="809.5667">GetTipoAntecedenteRequest</text><line style="stroke:#181818;stroke-width:0.5;" x1="1775" x2="2009" y1="820.72" y2="820.72"/><text fill="#000000" font-family="sans-serif" font-size="14" lengthAdjust="spacing" textLength="66" x="1780" y="837.7151">int tipo_id</text><text fill="#000000" font-family="sans-serif" font-size="14" lengthAdjust="spacing" textLength="83" x="1780" y="854.012">string token</text><line style="stroke:#181818;stroke-width:0.5;" x1="1775" x2="2009" y1="861.3138" y2="861.3138"/></g><!--class GetTipoAntecedenteResponse--><g id="elem_GetTipoAntecedenteResponse"><rect codeLine="152" fill="#F1F1F1" height="64.2969" id="GetTipoAntecedenteResponse" rx="2.5" ry="2.5" style="stroke:#181818;stroke-width:0.5;" width="248" x="777" y="937.46"/><ellipse cx="792" cy="953.46" fill="#ADD1B2" rx="11" ry="11" style="stroke:#181818;stroke-width:1.0;"/><path d="M794.9688,959.1006 Q794.3906,959.3975 793.75,959.5381 Q793.1094,959.6944 792.4063,959.6944 Q789.9063,959.6944 788.5781,958.0538 Q787.2656,956.3975 787.2656,953.2725 Q787.2656,950.1475 788.5781,948.4913 Q789.9063,946.835 792.4063,946.835 Q793.1094,946.835 793.75,946.9913 Q794.4063,947.1475 794.9688,947.4444 L794.9688,950.1631 Q794.3438,949.585 793.75,949.3194 Q793.1563,949.0381 792.5313,949.0381 Q791.1875,949.0381 790.5,950.1163 Q789.8125,951.1788 789.8125,953.2725 Q789.8125,955.3663 790.5,956.4444 Q791.1875,957.5069 792.5313,957.5069 Q793.1563,957.5069 793.75,957.2413 Q794.3438,956.96 794.9688,956.3819 L794.9688,959.1006 Z " fill="#000000"/><text fill="#000000" font-family="sans-serif" font-size="14" lengthAdjust="spacing" textLength="216" x="806" y="958.3067">GetTipoAntecedenteResponse</text><line style="stroke:#181818;stroke-width:0.5;" x1="778" x2="1024" y1="969.46" y2="969.46"/><text fill="#000000" font-family="sans-serif" font-size="14" lengthAdjust="spacing" textLength="150" x="783" y="986.4551">TipoAntecedente tipo</text><line style="stroke:#181818;stroke-width:0.5;" x1="778" x2="1024" y1="993.7569" y2="993.7569"/></g><!--class PostTipoAntecedenteRequest--><g id="elem_PostTipoAntecedenteRequest"><rect codeLine="156" fill="#F1F1F1" height="80.5938" id="PostTipoAntecedenteRequest" rx="2.5" ry="2.5" style="stroke:#181818;stroke-width:0.5;" width="242" x="1060" y="929.32"/><ellipse cx="1075" cy="945.32" fill="#ADD1B2" rx="11" ry="11" style="stroke:#181818;stroke-width:1.0;"/><path d="M1077.9688,950.9606 Q1077.3906,951.2575 1076.75,951.3981 Q1076.1094,951.5544 1075.4063,951.5544 Q1072.9063,951.5544 1071.5781,949.9138 Q1070.2656,948.2575 1070.2656,945.1325 Q1070.2656,942.0075 1071.5781,940.3513 Q1072.9063,938.695 1075.4063,938.695 Q1076.1094,938.695 1076.75,938.8513 Q1077.4063,939.0075 1077.9688,939.3044 L1077.9688,942.0231 Q1077.3438,941.445 1076.75,941.1794 Q1076.1563,940.8981 1075.5313,940.8981 Q1074.1875,940.8981 1073.5,941.9763 Q1072.8125,943.0388 1072.8125,945.1325 Q1072.8125,947.2263 1073.5,948.3044 Q1074.1875,949.3669 1075.5313,949.3669 Q1076.1563,949.3669 1076.75,949.1013 Q1077.3438,948.82 1077.9688,948.2419 L1077.9688,950.9606 Z " fill="#000000"/><text fill="#000000" font-family="sans-serif" font-size="14" lengthAdjust="spacing" textLength="210" x="1089" y="950.1667">PostTipoAntecedenteRequest</text><line style="stroke:#181818;stroke-width:0.5;" x1="1061" x2="1301" y1="961.32" y2="961.32"/><text fill="#000000" font-family="sans-serif" font-size="14" lengthAdjust="spacing" textLength="200" x="1066" y="978.3151">TipoAntecedente nuevo_tipo</text><text fill="#000000" font-family="sans-serif" font-size="14" lengthAdjust="spacing" textLength="83" x="1066" y="994.612">string token</text><line style="stroke:#181818;stroke-width:0.5;" x1="1061" x2="1301" y1="1001.9138" y2="1001.9138"/></g><!--class PostTipoAntecedenteResponse--><g id="elem_PostTipoAntecedenteResponse"><rect codeLine="160" fill="#F1F1F1" height="64.2969" id="PostTipoAntecedenteResponse" rx="2.5" ry="2.5" style="stroke:#181818;stroke-width:0.5;" width="254" x="1337" y="937.46"/><ellipse cx="1352" cy="953.46" fill="#ADD1B2" rx="11" ry="11" style="stroke:#181818;stroke-width:1.0;"/><path d="M1354.9688,959.1006 Q1354.3906,959.3975 1353.75,959.5381 Q1353.1094,959.6944 1352.4063,959.6944 Q1349.9063,959.6944 1348.5781,958.0538 Q1347.2656,956.3975 1347.2656,953.2725 Q1347.2656,950.1475 1348.5781,948.4913 Q1349.9063,946.835 1352.4063,946.835 Q1353.1094,946.835 1353.75,946.9913 Q1354.4063,947.1475 1354.9688,947.4444 L1354.9688,950.1631 Q1354.3438,949.585 1353.75,949.3194 Q1353.1563,949.0381 1352.5313,949.0381 Q1351.1875,949.0381 1350.5,950.1163 Q1349.8125,951.1788 1349.8125,953.2725 Q1349.8125,955.3663 1350.5,956.4444 Q1351.1875,957.5069 1352.5313,957.5069 Q1353.1563,957.5069 1353.75,957.2413 Q1354.3438,956.96 1354.9688,956.3819 L1354.9688,959.1006 Z " fill="#000000"/><text fill="#000000" font-family="sans-serif" font-size="14" lengthAdjust="spacing" textLength="222" x="1366" y="958.3067">PostTipoAntecedenteResponse</text><line style="stroke:#181818;stroke-width:0.5;" x1="1338" x2="1590" y1="969.46" y2="969.46"/><text fill="#000000" font-family="sans-serif" font-size="14" lengthAdjust="spacing" textLength="150" x="1343" y="986.4551">TipoAntecedente tipo</text><line style="stroke:#181818;stroke-width:0.5;" x1="1338" x2="1590" y1="993.7569" y2="993.7569"/></g><!--SRC=[fLNHhjCm37tklgA_07-0q8KN7X02NX2AV5ElHBUDWvEEIUZ-EsxIhKcNiUdUFQsEpx6FxJWEz1Fqs8xKuT3-tUqQFO3txJS_0HiIIzFumCRsxUIHBOouMfnu_Y7kTitp6VYUR00Tw654xj5g0v73sD2QJkdbTEMmD3vomSbe0tgT-GGSS4-MyZYVGPlPKTXR-Hs0zI_WLWDR3D7qI3GWs1QzGX-cpe2u5yufjYziu70OJ4V96aqUZrG68MOiJUSKSwF7VcBQviV8e4Xrw5AU7OYAFSgniY9gd6Ljo8qZvS7sNERV6KQj3Tbe3NWC8Yc0CgCZ3b5kqrGQSkg2mhDDlRdVzMtUXtSIHMEtjEBSQ5ZDOlmg0dB7MT3QtawwpSP58Hdp5fIntuTd292gMM1NyqsAxyQRK0pm8Lha-pn_RlcpaeqKp25rC9XHPWz6bngyzacciRVaWz6q6XdtoB76GlPmbBjcFqWyJIt63xMFNtc6XLUMvmPGrHbzzp92K-ghN0Ldf3h4CO7zG10aiT79m8Q9OK7u-35JA3eQcGbQ3lfXqZHYIF0DkGo-QDQd4oV1PWRWWE8_p9f4bLlMaQoQ0_8iACdyHBsnN_3t9DMyVoULOE_8UipHWPwmwBTuqXGgSIuyFs98m-5pxwXicGTbkWg-0i_oIhOVFziqPhvOU38jwJoFk4oedV00wt1UYPfJN4HjJ-X2v6dCNwfonMS1AtUdr5cBUWRDMabTNhkQsll3DrdI-QNQ2bykrWtP9KCMktAhj-AlHI-WgGWdWl-LuAMfY8fiWsxBa6tHMxKeMBBu-Nukbd9PZYj9vEXKZEfYhrNa5GdDSifdwQ8myrjzgo9RYZo9wbEvASdr5BRmfJJ5UrcjoGjIUlu7]--></g></svg>