<?xml version="1.0" encoding="us-ascii" standalone="no"?><svg xmlns="http://www.w3.org/2000/svg" xmlns:xlink="http://www.w3.org/1999/xlink" contentStyleType="text/css" height="1218px" preserveAspectRatio="none" style="width:1904px;height:1218px;background:#282828;" version="1.1" viewBox="0 0 1904 1218" width="1904px" zoomAndPan="magnify"><defs/><g><rect fill="#282828" height="1218" style="stroke:none;stroke-width:1.0;" width="1904" x="0" y="0"/><!--class Usuario--><g id="elem_Usuario"><rect codeLine="4" fill="#282828" height="76.5938" id="Usuario" rx="2.5" ry="2.5" style="stroke:#33FF33;stroke-width:1.0;" width="153" x="236.5" y="117.93"/><ellipse cx="283.25" cy="131.93" fill="#282828" rx="9" ry="9" style="stroke:#33FF33;stroke-width:1.0;"/><path d="M287.3594,137.93 L279.6406,137.93 L279.6406,125.5394 L287.3594,125.5394 L287.3594,127.6956 L282.0938,127.6956 L282.0938,130.3675 L286.8594,130.3675 L286.8594,132.5237 L282.0938,132.5237 L282.0938,135.7737 L287.3594,135.7737 L287.3594,137.93 Z " fill="#33FF33"/><text fill="#33FF33" font-family="Verdana" font-size="14" lengthAdjust="spacing" textLength="52" x="300.75" y="136.7767">Usuario</text><line style="stroke:#33FF33;stroke-width:1.0;" x1="237.5" x2="388.5" y1="145.93" y2="145.93"/><ellipse cx="247.5" cy="159.5784" fill="#282828" rx="3" ry="3" style="stroke:#33FF33;stroke-width:1.0;"/><text fill="#33FF33" font-family="Verdana" font-size="14" lengthAdjust="spacing" textLength="129" x="254.5" y="162.9251">username: varchar</text><ellipse cx="247.5" cy="175.8753" fill="#282828" rx="3" ry="3" style="stroke:#33FF33;stroke-width:1.0;"/><text fill="#33FF33" font-family="Verdana" font-size="14" lengthAdjust="spacing" textLength="126" x="254.5" y="179.222">password: varchar</text><line style="stroke:#33FF33;stroke-width:1.0;" x1="237.5" x2="388.5" y1="186.5237" y2="186.5237"/></g><!--class Sesion--><g id="elem_Sesion"><rect codeLine="9" fill="#282828" height="92.8906" id="Sesion" rx="2.5" ry="2.5" style="stroke:#33FF33;stroke-width:1.0;" width="159" x="233.5" y="393.05"/><ellipse cx="285.75" cy="407.05" fill="#282828" rx="9" ry="9" style="stroke:#33FF33;stroke-width:1.0;"/><path d="M289.8594,413.05 L282.1406,413.05 L282.1406,400.6594 L289.8594,400.6594 L289.8594,402.8156 L284.5938,402.8156 L284.5938,405.4875 L289.3594,405.4875 L289.3594,407.6437 L284.5938,407.6437 L284.5938,410.8937 L289.8594,410.8937 L289.8594,413.05 Z " fill="#33FF33"/><text fill="#33FF33" font-family="Verdana" font-size="14" lengthAdjust="spacing" textLength="47" x="303.25" y="411.8967">Sesion</text><line style="stroke:#33FF33;stroke-width:1.0;" x1="234.5" x2="391.5" y1="421.05" y2="421.05"/><ellipse cx="244.5" cy="434.6984" fill="#282828" rx="3" ry="3" style="stroke:#33FF33;stroke-width:1.0;"/><text fill="#33FF33" font-family="Verdana" font-size="14" lengthAdjust="spacing" textLength="99" x="251.5" y="438.0451">token: varchar</text><line style="stroke:#33FF33;stroke-width:1.0;" x1="234.5" x2="391.5" y1="445.3469" y2="445.3469"/><ellipse cx="244.5" cy="458.9953" fill="#282828" rx="3" ry="3" style="stroke:#33FF33;stroke-width:1.0;"/><text fill="#33FF33" font-family="Verdana" font-size="14" lengthAdjust="spacing" textLength="129" x="251.5" y="462.342">username: varchar</text><ellipse cx="244.5" cy="475.2922" fill="#282828" rx="3" ry="3" style="stroke:#33FF33;stroke-width:1.0;"/><text fill="#33FF33" font-family="Verdana" font-size="14" lengthAdjust="spacing" textLength="135" x="251.5" y="478.6389">created: timestamp</text></g><!--class Contacto_Emergencia--><g id="elem_Contacto_Emergencia"><rect codeLine="16" fill="#282828" height="109.1875" id="Contacto_Emergencia" rx="2.5" ry="2.5" style="stroke:#33FF33;stroke-width:1.0;" width="243" x="427.5" y="384.9"/><ellipse cx="469.25" cy="398.9" fill="#282828" rx="9" ry="9" style="stroke:#33FF33;stroke-width:1.0;"/><path d="M473.3594,404.9 L465.6406,404.9 L465.6406,392.5094 L473.3594,392.5094 L473.3594,394.6656 L468.0938,394.6656 L468.0938,397.3375 L472.8594,397.3375 L472.8594,399.4938 L468.0938,399.4938 L468.0938,402.7438 L473.3594,402.7438 L473.3594,404.9 Z " fill="#33FF33"/><text fill="#33FF33" font-family="Verdana" font-size="14" lengthAdjust="spacing" textLength="152" x="486.75" y="403.7467">Contacto_Emergencia</text><line style="stroke:#33FF33;stroke-width:1.0;" x1="428.5" x2="669.5" y1="412.9" y2="412.9"/><ellipse cx="438.5" cy="426.5484" fill="#282828" rx="3" ry="3" style="stroke:#33FF33;stroke-width:1.0;"/><text fill="#33FF33" font-family="Verdana" font-size="14" lengthAdjust="spacing" textLength="219" x="445.5" y="429.8951">id_contacto: serial &#171;generated&#187;</text><line style="stroke:#33FF33;stroke-width:1.0;" x1="428.5" x2="669.5" y1="437.1969" y2="437.1969"/><ellipse cx="438.5" cy="450.8453" fill="#282828" rx="3" ry="3" style="stroke:#33FF33;stroke-width:1.0;"/><text fill="#33FF33" font-family="Verdana" font-size="14" lengthAdjust="spacing" textLength="113" x="445.5" y="454.192">nombre: varchar</text><ellipse cx="438.5" cy="467.1422" fill="#282828" rx="3" ry="3" style="stroke:#33FF33;stroke-width:1.0;"/><text fill="#33FF33" font-family="Verdana" font-size="14" lengthAdjust="spacing" textLength="138" x="445.5" y="470.4889">parentesco: varchar</text><ellipse cx="438.5" cy="483.4391" fill="#282828" rx="3" ry="3" style="stroke:#33FF33;stroke-width:1.0;"/><text fill="#33FF33" font-family="Verdana" font-size="14" lengthAdjust="spacing" textLength="116" x="445.5" y="486.7857">telefono: varchar</text></g><!--class Paciente--><g id="elem_Paciente"><rect codeLine="24" fill="#282828" height="288.4531" id="Paciente" rx="2.5" ry="2.5" style="stroke:#33FF33;stroke-width:1.0;" width="274" x="587" y="12"/><ellipse cx="690.25" cy="26" fill="#282828" rx="9" ry="9" style="stroke:#33FF33;stroke-width:1.0;"/><path d="M694.3594,32 L686.6406,32 L686.6406,19.6094 L694.3594,19.6094 L694.3594,21.7656 L689.0938,21.7656 L689.0938,24.4375 L693.8594,24.4375 L693.8594,26.5938 L689.0938,26.5938 L689.0938,29.8438 L694.3594,29.8438 L694.3594,32 Z " fill="#33FF33"/><text fill="#33FF33" font-family="Verdana" font-size="14" lengthAdjust="spacing" textLength="60" x="707.75" y="30.8467">Paciente</text><line style="stroke:#33FF33;stroke-width:1.0;" x1="588" x2="860" y1="40" y2="40"/><ellipse cx="598" cy="53.6484" fill="#282828" rx="3" ry="3" style="stroke:#33FF33;stroke-width:1.0;"/><text fill="#33FF33" font-family="Verdana" font-size="14" lengthAdjust="spacing" textLength="103" x="605" y="56.9951">carnet: varchar</text><line style="stroke:#33FF33;stroke-width:1.0;" x1="588" x2="860" y1="64.2969" y2="64.2969"/><ellipse cx="598" cy="77.9453" fill="#282828" rx="3" ry="3" style="stroke:#33FF33;stroke-width:1.0;"/><text fill="#33FF33" font-family="Verdana" font-size="14" lengthAdjust="spacing" textLength="163" x="605" y="81.292">es_estudiante: boolean</text><ellipse cx="598" cy="94.2422" fill="#282828" rx="3" ry="3" style="stroke:#33FF33;stroke-width:1.0;"/><text fill="#33FF33" font-family="Verdana" font-size="14" lengthAdjust="spacing" textLength="121" x="605" y="97.5889">nombres: varchar</text><ellipse cx="598" cy="110.5391" fill="#282828" rx="3" ry="3" style="stroke:#33FF33;stroke-width:1.0;"/><text fill="#33FF33" font-family="Verdana" font-size="14" lengthAdjust="spacing" textLength="120" x="605" y="113.8857">apellidos: varchar</text><ellipse cx="598" cy="126.8359" fill="#282828" rx="3" ry="3" style="stroke:#33FF33;stroke-width:1.0;"/><text fill="#33FF33" font-family="Verdana" font-size="14" lengthAdjust="spacing" textLength="72" x="605" y="130.1826">sexo: char</text><ellipse cx="598" cy="143.1328" fill="#282828" rx="3" ry="3" style="stroke:#33FF33;stroke-width:1.0;"/><text fill="#33FF33" font-family="Verdana" font-size="14" lengthAdjust="spacing" textLength="104" x="605" y="146.4795">correo: varchar</text><ellipse cx="598" cy="159.4297" fill="#282828" rx="3" ry="3" style="stroke:#33FF33;stroke-width:1.0;"/><text fill="#33FF33" font-family="Verdana" font-size="14" lengthAdjust="spacing" textLength="116" x="605" y="162.7764">telefono: varchar</text><ellipse cx="598" cy="175.7266" fill="#282828" rx="3" ry="3" style="stroke:#33FF33;stroke-width:1.0;"/><text fill="#33FF33" font-family="Verdana" font-size="14" lengthAdjust="spacing" textLength="108" x="605" y="179.0732">seguro: varchar</text><ellipse cx="598" cy="192.0234" fill="#282828" rx="3" ry="3" style="stroke:#33FF33;stroke-width:1.0;"/><text fill="#33FF33" font-family="Verdana" font-size="14" lengthAdjust="spacing" textLength="162" x="605" y="195.3701">carrera_o_dept: varchar</text><ellipse cx="598" cy="208.3203" fill="#282828" rx="3" ry="3" style="stroke:#33FF33;stroke-width:1.0;"/><text fill="#33FF33" font-family="Verdana" font-size="14" lengthAdjust="spacing" textLength="161" x="605" y="211.667">fecha_nacimiento: date</text><ellipse cx="598" cy="224.6172" fill="#282828" rx="3" ry="3" style="stroke:#33FF33;stroke-width:1.0;"/><text fill="#33FF33" font-family="Verdana" font-size="14" lengthAdjust="spacing" textLength="140" x="605" y="227.9639">tipo_sangre: varchar</text><ellipse cx="598" cy="240.9141" fill="#282828" rx="3" ry="3" style="stroke:#33FF33;stroke-width:1.0;"/><text fill="#33FF33" font-family="Verdana" font-size="14" lengthAdjust="spacing" textLength="122" x="605" y="244.2607">direccion: varchar</text><ellipse cx="598" cy="257.2109" fill="#282828" rx="3" ry="3" style="stroke:#33FF33;stroke-width:1.0;"/><text fill="#33FF33" font-family="Verdana" font-size="14" lengthAdjust="spacing" textLength="148" x="605" y="260.5576">nota_importante: text</text><ellipse cx="598" cy="273.5078" fill="#282828" rx="3" ry="3" style="stroke:#33FF33;stroke-width:1.0;"/><text fill="#33FF33" font-family="Verdana" font-size="14" lengthAdjust="spacing" textLength="250" x="605" y="276.8545">contacto_emergencia_1: serial &#171;FK&#187;</text><text fill="#33FF33" font-family="Verdana" font-size="14" lengthAdjust="spacing" textLength="250" x="605" y="293.1514">contacto_emergencia_2: serial &#171;FK&#187;</text></g><!--class Antecedente_Paciente--><g id="elem_Antecedente_Paciente"><rect codeLine="43" fill="#282828" height="109.1875" id="Antecedente_Paciente" rx="2.5" ry="2.5" style="stroke:#33FF33;stroke-width:1.0;" width="338" x="647" y="812.91"/><ellipse cx="733.75" cy="826.91" fill="#282828" rx="9" ry="9" style="stroke:#33FF33;stroke-width:1.0;"/><path d="M737.8594,832.91 L730.1406,832.91 L730.1406,820.5194 L737.8594,820.5194 L737.8594,822.6756 L732.5938,822.6756 L732.5938,825.3475 L737.3594,825.3475 L737.3594,827.5037 L732.5938,827.5037 L732.5938,830.7537 L737.8594,830.7537 L737.8594,832.91 Z " fill="#33FF33"/><text fill="#33FF33" font-family="Verdana" font-size="14" lengthAdjust="spacing" textLength="157" x="751.25" y="831.7567">Antecedente_Paciente</text><line style="stroke:#33FF33;stroke-width:1.0;" x1="648" x2="984" y1="840.91" y2="840.91"/><ellipse cx="658" cy="854.5584" fill="#282828" rx="3" ry="3" style="stroke:#33FF33;stroke-width:1.0;"/><text fill="#33FF33" font-family="Verdana" font-size="14" lengthAdjust="spacing" textLength="314" x="665" y="857.9051">id_antecedente_paciente: serial &#171;generated&#187;</text><ellipse cx="658" cy="870.8553" fill="#282828" rx="3" ry="3" style="stroke:#33FF33;stroke-width:1.0;"/><text fill="#33FF33" font-family="Verdana" font-size="14" lengthAdjust="spacing" textLength="144" x="665" y="874.202">paciente: serial &#171;FK&#187;</text><ellipse cx="658" cy="887.1522" fill="#282828" rx="3" ry="3" style="stroke:#33FF33;stroke-width:1.0;"/><text fill="#33FF33" font-family="Verdana" font-size="14" lengthAdjust="spacing" textLength="173" x="665" y="890.4989">antecedente: serial &#171;FK&#187;</text><line style="stroke:#33FF33;stroke-width:1.0;" x1="648" x2="984" y1="897.8006" y2="897.8006"/><ellipse cx="658" cy="911.4491" fill="#282828" rx="3" ry="3" style="stroke:#33FF33;stroke-width:1.0;"/><text fill="#33FF33" font-family="Verdana" font-size="14" lengthAdjust="spacing" textLength="120" x="665" y="914.7957">fecha_inicio: date</text></g><!--class Antecedente--><g id="elem_Antecedente"><rect codeLine="51" fill="#282828" height="92.8906" id="Antecedente" rx="2.5" ry="2.5" style="stroke:#33FF33;stroke-width:1.0;" width="271" x="680.5" y="982.1"/><ellipse cx="767.25" cy="996.1" fill="#282828" rx="9" ry="9" style="stroke:#33FF33;stroke-width:1.0;"/><path d="M771.3594,1002.1 L763.6406,1002.1 L763.6406,989.7094 L771.3594,989.7094 L771.3594,991.8656 L766.0938,991.8656 L766.0938,994.5375 L770.8594,994.5375 L770.8594,996.6937 L766.0938,996.6937 L766.0938,999.9437 L771.3594,999.9437 L771.3594,1002.1 Z " fill="#33FF33"/><text fill="#33FF33" font-family="Verdana" font-size="14" lengthAdjust="spacing" textLength="90" x="784.75" y="1000.9467">Antecedente</text><line style="stroke:#33FF33;stroke-width:1.0;" x1="681.5" x2="950.5" y1="1010.1" y2="1010.1"/><ellipse cx="691.5" cy="1023.7484" fill="#282828" rx="3" ry="3" style="stroke:#33FF33;stroke-width:1.0;"/><text fill="#33FF33" font-family="Verdana" font-size="14" lengthAdjust="spacing" textLength="247" x="698.5" y="1027.0951">id_antecedente: serial &#171;generated&#187;</text><line style="stroke:#33FF33;stroke-width:1.0;" x1="681.5" x2="950.5" y1="1034.3969" y2="1034.3969"/><ellipse cx="691.5" cy="1048.0453" fill="#282828" rx="3" ry="3" style="stroke:#33FF33;stroke-width:1.0;"/><text fill="#33FF33" font-family="Verdana" font-size="14" lengthAdjust="spacing" textLength="110" x="698.5" y="1051.392">tipo: serial &#171;FK&#187;</text><ellipse cx="691.5" cy="1064.3422" fill="#282828" rx="3" ry="3" style="stroke:#33FF33;stroke-width:1.0;"/><text fill="#33FF33" font-family="Verdana" font-size="14" lengthAdjust="spacing" textLength="139" x="698.5" y="1067.6889">descripcion: varchar</text></g><!--class Tipo_Antecedente--><g id="elem_Tipo_Antecedente"><rect codeLine="58" fill="#282828" height="76.5938" id="Tipo_Antecedente" rx="2.5" ry="2.5" style="stroke:#33FF33;stroke-width:1.0;" width="208" x="712" y="1134.99"/><ellipse cx="748.85" cy="1148.99" fill="#282828" rx="9" ry="9" style="stroke:#33FF33;stroke-width:1.0;"/><path d="M752.9594,1154.99 L745.2406,1154.99 L745.2406,1142.5994 L752.9594,1142.5994 L752.9594,1144.7556 L747.6938,1144.7556 L747.6938,1147.4275 L752.4594,1147.4275 L752.4594,1149.5838 L747.6938,1149.5838 L747.6938,1152.8338 L752.9594,1152.8338 L752.9594,1154.99 Z " fill="#33FF33"/><text fill="#33FF33" font-family="Verdana" font-size="14" lengthAdjust="spacing" textLength="127" x="766.15" y="1153.8367">Tipo_Antecedente</text><line style="stroke:#33FF33;stroke-width:1.0;" x1="713" x2="919" y1="1162.99" y2="1162.99"/><ellipse cx="723" cy="1176.6384" fill="#282828" rx="3" ry="3" style="stroke:#33FF33;stroke-width:1.0;"/><text fill="#33FF33" font-family="Verdana" font-size="14" lengthAdjust="spacing" textLength="184" x="730" y="1179.9851">id_tipo: serial &#171;generated&#187;</text><line style="stroke:#33FF33;stroke-width:1.0;" x1="713" x2="919" y1="1187.2869" y2="1187.2869"/><ellipse cx="723" cy="1200.9353" fill="#282828" rx="3" ry="3" style="stroke:#33FF33;stroke-width:1.0;"/><text fill="#33FF33" font-family="Verdana" font-size="14" lengthAdjust="spacing" textLength="139" x="730" y="1204.282">descripcion: varchar</text></g><!--class Tratamiento--><g id="elem_Tratamiento"><rect codeLine="64" fill="#282828" height="76.5938" id="Tratamiento" rx="2.5" ry="2.5" style="stroke:#33FF33;stroke-width:1.0;" width="261" x="777.5" y="401.2"/><ellipse cx="862.75" cy="415.2" fill="#282828" rx="9" ry="9" style="stroke:#33FF33;stroke-width:1.0;"/><path d="M866.8594,421.2 L859.1406,421.2 L859.1406,408.8094 L866.8594,408.8094 L866.8594,410.9656 L861.5938,410.9656 L861.5938,413.6375 L866.3594,413.6375 L866.3594,415.7937 L861.5938,415.7937 L861.5938,419.0437 L866.8594,419.0437 L866.8594,421.2 Z " fill="#33FF33"/><text fill="#33FF33" font-family="Verdana" font-size="14" lengthAdjust="spacing" textLength="83" x="880.25" y="420.0467">Tratamiento</text><line style="stroke:#33FF33;stroke-width:1.0;" x1="778.5" x2="1037.5" y1="429.2" y2="429.2"/><ellipse cx="788.5" cy="442.8484" fill="#282828" rx="3" ry="3" style="stroke:#33FF33;stroke-width:1.0;"/><text fill="#33FF33" font-family="Verdana" font-size="14" lengthAdjust="spacing" textLength="237" x="795.5" y="446.1951">id_tratamiento: serial &#171;generated&#187;</text><line style="stroke:#33FF33;stroke-width:1.0;" x1="778.5" x2="1037.5" y1="453.4969" y2="453.4969"/><ellipse cx="788.5" cy="467.1453" fill="#282828" rx="3" ry="3" style="stroke:#33FF33;stroke-width:1.0;"/><text fill="#33FF33" font-family="Verdana" font-size="14" lengthAdjust="spacing" textLength="139" x="795.5" y="470.492">descripcion: varchar</text></g><!--class Tratamiento_Antecedente--><g id="elem_Tratamiento_Antecedente"><rect codeLine="70" fill="#282828" height="92.8906" id="Tratamiento_Antecedente" rx="2.5" ry="2.5" style="stroke:#33FF33;stroke-width:1.0;" width="264" x="777" y="619.28"/><ellipse cx="815.25" cy="633.28" fill="#282828" rx="9" ry="9" style="stroke:#33FF33;stroke-width:1.0;"/><path d="M819.3594,639.28 L811.6406,639.28 L811.6406,626.8894 L819.3594,626.8894 L819.3594,629.0456 L814.0938,629.0456 L814.0938,631.7175 L818.8594,631.7175 L818.8594,633.8738 L814.0938,633.8738 L814.0938,637.1238 L819.3594,637.1238 L819.3594,639.28 Z " fill="#33FF33"/><text fill="#33FF33" font-family="Verdana" font-size="14" lengthAdjust="spacing" textLength="180" x="832.75" y="638.1267">Tratamiento_Antecedente</text><line style="stroke:#33FF33;stroke-width:1.0;" x1="778" x2="1040" y1="647.28" y2="647.28"/><ellipse cx="788" cy="660.9284" fill="#282828" rx="3" ry="3" style="stroke:#33FF33;stroke-width:1.0;"/><text fill="#33FF33" font-family="Verdana" font-size="14" lengthAdjust="spacing" textLength="240" x="795" y="664.2751">antecedente_paciente: serial &#171;FK&#187;</text><ellipse cx="788" cy="677.2253" fill="#282828" rx="3" ry="3" style="stroke:#33FF33;stroke-width:1.0;"/><text fill="#33FF33" font-family="Verdana" font-size="14" lengthAdjust="spacing" textLength="163" x="795" y="680.572">tratamiento: serial &#171;FK&#187;</text><line style="stroke:#33FF33;stroke-width:1.0;" x1="778" x2="1040" y1="687.8738" y2="687.8738"/><text fill="#33FF33" font-family="Verdana" font-size="14" lengthAdjust="spacing" textLength="224" x="783" y="704.8689">detalle_farmacologia: serial &#171;FK&#187;</text></g><!--class Detalle_Farmacologia--><g id="elem_Detalle_Farmacologia"><rect codeLine="77" fill="#282828" height="109.1875" id="Detalle_Farmacologia" rx="2.5" ry="2.5" style="stroke:#33FF33;stroke-width:1.0;" width="322" x="1073" y="384.9"/><ellipse cx="1157.25" cy="398.9" fill="#282828" rx="9" ry="9" style="stroke:#33FF33;stroke-width:1.0;"/><path d="M1161.3594,404.9 L1153.6406,404.9 L1153.6406,392.5094 L1161.3594,392.5094 L1161.3594,394.6656 L1156.0938,394.6656 L1156.0938,397.3375 L1160.8594,397.3375 L1160.8594,399.4938 L1156.0938,399.4938 L1156.0938,402.7438 L1161.3594,402.7438 L1161.3594,404.9 Z " fill="#33FF33"/><text fill="#33FF33" font-family="Verdana" font-size="14" lengthAdjust="spacing" textLength="146" x="1174.75" y="403.7467">Detalle_Farmacologia</text><line style="stroke:#33FF33;stroke-width:1.0;" x1="1074" x2="1394" y1="412.9" y2="412.9"/><ellipse cx="1084" cy="426.5484" fill="#282828" rx="3" ry="3" style="stroke:#33FF33;stroke-width:1.0;"/><text fill="#33FF33" font-family="Verdana" font-size="14" lengthAdjust="spacing" textLength="298" x="1091" y="429.8951">id_detalle_farmacologia: serial &#171;generated&#187;</text><line style="stroke:#33FF33;stroke-width:1.0;" x1="1074" x2="1394" y1="437.1969" y2="437.1969"/><ellipse cx="1084" cy="450.8453" fill="#282828" rx="3" ry="3" style="stroke:#33FF33;stroke-width:1.0;"/><text fill="#33FF33" font-family="Verdana" font-size="14" lengthAdjust="spacing" textLength="161" x="1091" y="454.192">dosis: double precision</text><ellipse cx="1084" cy="467.1422" fill="#282828" rx="3" ry="3" style="stroke:#33FF33;stroke-width:1.0;"/><text fill="#33FF33" font-family="Verdana" font-size="14" lengthAdjust="spacing" textLength="150" x="1091" y="470.4889">unidad_dosis: varchar</text><ellipse cx="1084" cy="483.4391" fill="#282828" rx="3" ry="3" style="stroke:#33FF33;stroke-width:1.0;"/><text fill="#33FF33" font-family="Verdana" font-size="14" lengthAdjust="spacing" textLength="174" x="1091" y="486.7857">frecuencia_dosis: integer</text></g><!--class Tratamiento_Visita--><g id="elem_Tratamiento_Visita"><rect codeLine="85" fill="#282828" height="92.8906" id="Tratamiento_Visita" rx="2.5" ry="2.5" style="stroke:#33FF33;stroke-width:1.0;" width="236" x="1116" y="619.28"/><ellipse cx="1167.25" cy="633.28" fill="#282828" rx="9" ry="9" style="stroke:#33FF33;stroke-width:1.0;"/><path d="M1171.3594,639.28 L1163.6406,639.28 L1163.6406,626.8894 L1171.3594,626.8894 L1171.3594,629.0456 L1166.0938,629.0456 L1166.0938,631.7175 L1170.8594,631.7175 L1170.8594,633.8738 L1166.0938,633.8738 L1166.0938,637.1238 L1171.3594,637.1238 L1171.3594,639.28 Z " fill="#33FF33"/><text fill="#33FF33" font-family="Verdana" font-size="14" lengthAdjust="spacing" textLength="126" x="1184.75" y="638.1267">Tratamiento_Visita</text><line style="stroke:#33FF33;stroke-width:1.0;" x1="1117" x2="1351" y1="647.28" y2="647.28"/><ellipse cx="1127" cy="660.9284" fill="#282828" rx="3" ry="3" style="stroke:#33FF33;stroke-width:1.0;"/><text fill="#33FF33" font-family="Verdana" font-size="14" lengthAdjust="spacing" textLength="118" x="1134" y="664.2751">visita: serial &#171;FK&#187;</text><ellipse cx="1127" cy="677.2253" fill="#282828" rx="3" ry="3" style="stroke:#33FF33;stroke-width:1.0;"/><text fill="#33FF33" font-family="Verdana" font-size="14" lengthAdjust="spacing" textLength="163" x="1134" y="680.572">tratamiento: serial &#171;FK&#187;</text><line style="stroke:#33FF33;stroke-width:1.0;" x1="1117" x2="1351" y1="687.8738" y2="687.8738"/><text fill="#33FF33" font-family="Verdana" font-size="14" lengthAdjust="spacing" textLength="224" x="1122" y="704.8689">detalle_farmacologia: serial &#171;FK&#187;</text></g><!--class Visita--><g id="elem_Visita"><rect codeLine="92" fill="#282828" height="158.0781" id="Visita" rx="2.5" ry="2.5" style="stroke:#33FF33;stroke-width:1.0;" width="216" x="1430" y="360.45"/><ellipse cx="1516.25" cy="374.45" fill="#282828" rx="9" ry="9" style="stroke:#33FF33;stroke-width:1.0;"/><path d="M1520.3594,380.45 L1512.6406,380.45 L1512.6406,368.0594 L1520.3594,368.0594 L1520.3594,370.2156 L1515.0938,370.2156 L1515.0938,372.8875 L1519.8594,372.8875 L1519.8594,375.0437 L1515.0938,375.0437 L1515.0938,378.2937 L1520.3594,378.2937 L1520.3594,380.45 Z " fill="#33FF33"/><text fill="#33FF33" font-family="Verdana" font-size="14" lengthAdjust="spacing" textLength="36" x="1533.75" y="379.2967">Visita</text><line style="stroke:#33FF33;stroke-width:1.0;" x1="1431" x2="1645" y1="388.45" y2="388.45"/><ellipse cx="1441" cy="402.0984" fill="#282828" rx="3" ry="3" style="stroke:#33FF33;stroke-width:1.0;"/><text fill="#33FF33" font-family="Verdana" font-size="14" lengthAdjust="spacing" textLength="192" x="1448" y="405.4451">id_visita: serial &#171;generated&#187;</text><line style="stroke:#33FF33;stroke-width:1.0;" x1="1431" x2="1645" y1="412.7469" y2="412.7469"/><ellipse cx="1441" cy="426.3953" fill="#282828" rx="3" ry="3" style="stroke:#33FF33;stroke-width:1.0;"/><text fill="#33FF33" font-family="Verdana" font-size="14" lengthAdjust="spacing" textLength="144" x="1448" y="429.742">paciente: serial &#171;FK&#187;</text><ellipse cx="1441" cy="442.6922" fill="#282828" rx="3" ry="3" style="stroke:#33FF33;stroke-width:1.0;"/><text fill="#33FF33" font-family="Verdana" font-size="14" lengthAdjust="spacing" textLength="105" x="1448" y="446.0389">motivo: varchar</text><ellipse cx="1441" cy="458.9891" fill="#282828" rx="3" ry="3" style="stroke:#33FF33;stroke-width:1.0;"/><text fill="#33FF33" font-family="Verdana" font-size="14" lengthAdjust="spacing" textLength="120" x="1448" y="462.3357">fecha: timestamp</text><ellipse cx="1441" cy="475.2859" fill="#282828" rx="3" ry="3" style="stroke:#33FF33;stroke-width:1.0;"/><text fill="#33FF33" font-family="Verdana" font-size="14" lengthAdjust="spacing" textLength="115" x="1448" y="478.6326">diagnostico: text</text><ellipse cx="1441" cy="491.5828" fill="#282828" rx="3" ry="3" style="stroke:#33FF33;stroke-width:1.0;"/><text fill="#33FF33" font-family="Verdana" font-size="14" lengthAdjust="spacing" textLength="104" x="1448" y="494.9295">referencia: text</text><text fill="#33FF33" font-family="Verdana" font-size="14" lengthAdjust="spacing" textLength="181" x="1448" y="511.2264">examen_fisico: serial &#171;FK&#187;</text></g><!--class Examen_Fisico--><g id="elem_Examen_Fisico"><rect codeLine="103" fill="#282828" height="174.375" id="Examen_Fisico" rx="2.5" ry="2.5" style="stroke:#33FF33;stroke-width:1.0;" width="279" x="1398.5" y="578.53"/><ellipse cx="1483.75" cy="592.53" fill="#282828" rx="9" ry="9" style="stroke:#33FF33;stroke-width:1.0;"/><path d="M1487.8594,598.53 L1480.1406,598.53 L1480.1406,586.1394 L1487.8594,586.1394 L1487.8594,588.2956 L1482.5938,588.2956 L1482.5938,590.9675 L1487.3594,590.9675 L1487.3594,593.1238 L1482.5938,593.1238 L1482.5938,596.3738 L1487.8594,596.3738 L1487.8594,598.53 Z " fill="#33FF33"/><text fill="#33FF33" font-family="Verdana" font-size="14" lengthAdjust="spacing" textLength="101" x="1501.25" y="597.3767">Examen_Fisico</text><line style="stroke:#33FF33;stroke-width:1.0;" x1="1399.5" x2="1676.5" y1="606.53" y2="606.53"/><ellipse cx="1409.5" cy="620.1784" fill="#282828" rx="3" ry="3" style="stroke:#33FF33;stroke-width:1.0;"/><text fill="#33FF33" font-family="Verdana" font-size="14" lengthAdjust="spacing" textLength="255" x="1416.5" y="623.5251">id_examen_fisico: serial &#171;generated&#187;</text><line style="stroke:#33FF33;stroke-width:1.0;" x1="1399.5" x2="1676.5" y1="630.8269" y2="630.8269"/><ellipse cx="1409.5" cy="644.4753" fill="#282828" rx="3" ry="3" style="stroke:#33FF33;stroke-width:1.0;"/><text fill="#33FF33" font-family="Verdana" font-size="14" lengthAdjust="spacing" textLength="139" x="1416.5" y="647.822">descripcion: varchar</text><ellipse cx="1409.5" cy="660.7722" fill="#282828" rx="3" ry="3" style="stroke:#33FF33;stroke-width:1.0;"/><text fill="#33FF33" font-family="Verdana" font-size="14" lengthAdjust="spacing" textLength="214" x="1416.5" y="664.1189">frecuencia_respiratoria: integer</text><ellipse cx="1409.5" cy="677.0691" fill="#282828" rx="3" ry="3" style="stroke:#33FF33;stroke-width:1.0;"/><text fill="#33FF33" font-family="Verdana" font-size="14" lengthAdjust="spacing" textLength="209" x="1416.5" y="680.4157">temperatura: double precision</text><ellipse cx="1409.5" cy="693.3659" fill="#282828" rx="3" ry="3" style="stroke:#33FF33;stroke-width:1.0;"/><text fill="#33FF33" font-family="Verdana" font-size="14" lengthAdjust="spacing" textLength="192" x="1416.5" y="696.7126">saturacion_oxigeno: integer</text><ellipse cx="1409.5" cy="709.6628" fill="#282828" rx="3" ry="3" style="stroke:#33FF33;stroke-width:1.0;"/><text fill="#33FF33" font-family="Verdana" font-size="14" lengthAdjust="spacing" textLength="139" x="1416.5" y="713.0095">glucometria: integer</text><ellipse cx="1409.5" cy="725.9597" fill="#282828" rx="3" ry="3" style="stroke:#33FF33;stroke-width:1.0;"/><text fill="#33FF33" font-family="Verdana" font-size="14" lengthAdjust="spacing" textLength="194" x="1416.5" y="729.3064">frecuencia_cardiaca: integer</text><ellipse cx="1409.5" cy="742.2566" fill="#282828" rx="3" ry="3" style="stroke:#33FF33;stroke-width:1.0;"/><text fill="#33FF33" font-family="Verdana" font-size="14" lengthAdjust="spacing" textLength="163" x="1416.5" y="745.6032">presion_arterial: integer</text></g><!--class Formulario--><g id="elem_Formulario"><rect codeLine="115" fill="#282828" height="92.8906" id="Formulario" rx="2.5" ry="2.5" style="stroke:#33FF33;stroke-width:1.0;" width="250" x="1647" y="109.78"/><ellipse cx="1732.25" cy="123.78" fill="#282828" rx="9" ry="9" style="stroke:#33FF33;stroke-width:1.0;"/><path d="M1736.3594,129.78 L1728.6406,129.78 L1728.6406,117.3894 L1736.3594,117.3894 L1736.3594,119.5456 L1731.0938,119.5456 L1731.0938,122.2175 L1735.8594,122.2175 L1735.8594,124.3737 L1731.0938,124.3737 L1731.0938,127.6237 L1736.3594,127.6237 L1736.3594,129.78 Z " fill="#33FF33"/><text fill="#33FF33" font-family="Verdana" font-size="14" lengthAdjust="spacing" textLength="72" x="1749.75" y="128.6267">Formulario</text><line style="stroke:#33FF33;stroke-width:1.0;" x1="1648" x2="1896" y1="137.78" y2="137.78"/><ellipse cx="1658" cy="151.4284" fill="#282828" rx="3" ry="3" style="stroke:#33FF33;stroke-width:1.0;"/><text fill="#33FF33" font-family="Verdana" font-size="14" lengthAdjust="spacing" textLength="226" x="1665" y="154.7751">id_formulario: serial &#171;generated&#187;</text><line style="stroke:#33FF33;stroke-width:1.0;" x1="1648" x2="1896" y1="162.0769" y2="162.0769"/><ellipse cx="1658" cy="175.7253" fill="#282828" rx="3" ry="3" style="stroke:#33FF33;stroke-width:1.0;"/><text fill="#33FF33" font-family="Verdana" font-size="14" lengthAdjust="spacing" textLength="109" x="1665" y="179.072">edicion: varchar</text><ellipse cx="1658" cy="192.0222" fill="#282828" rx="3" ry="3" style="stroke:#33FF33;stroke-width:1.0;"/><text fill="#33FF33" font-family="Verdana" font-size="14" lengthAdjust="spacing" textLength="120" x="1665" y="195.3689">fecha: timestamp</text></g><!--class Respuesta_Formulario--><g id="elem_Respuesta_Formulario"><rect codeLine="122" fill="#282828" height="92.8906" id="Respuesta_Formulario" rx="2.5" ry="2.5" style="stroke:#33FF33;stroke-width:1.0;" width="182" x="1681" y="393.05"/><ellipse cx="1694" cy="407.05" fill="#282828" rx="9" ry="9" style="stroke:#33FF33;stroke-width:1.0;"/><path d="M1698.1094,413.05 L1690.3906,413.05 L1690.3906,400.6594 L1698.1094,400.6594 L1698.1094,402.8156 L1692.8438,402.8156 L1692.8438,405.4875 L1697.6094,405.4875 L1697.6094,407.6437 L1692.8438,407.6437 L1692.8438,410.8937 L1698.1094,410.8937 L1698.1094,413.05 Z " fill="#33FF33"/><text fill="#33FF33" font-family="Verdana" font-size="14" lengthAdjust="spacing" textLength="154" x="1706" y="411.8967">Respuesta_Formulario</text><line style="stroke:#33FF33;stroke-width:1.0;" x1="1682" x2="1862" y1="421.05" y2="421.05"/><ellipse cx="1692" cy="434.6984" fill="#282828" rx="3" ry="3" style="stroke:#33FF33;stroke-width:1.0;"/><text fill="#33FF33" font-family="Verdana" font-size="14" lengthAdjust="spacing" textLength="152" x="1699" y="438.0451">formulario: serial &#171;FK&#187;</text><ellipse cx="1692" cy="450.9953" fill="#282828" rx="3" ry="3" style="stroke:#33FF33;stroke-width:1.0;"/><text fill="#33FF33" font-family="Verdana" font-size="14" lengthAdjust="spacing" textLength="144" x="1699" y="454.342">paciente: serial &#171;FK&#187;</text><line style="stroke:#33FF33;stroke-width:1.0;" x1="1682" x2="1862" y1="461.6437" y2="461.6437"/><ellipse cx="1692" cy="475.2922" fill="#282828" rx="3" ry="3" style="stroke:#33FF33;stroke-width:1.0;"/><text fill="#33FF33" font-family="Verdana" font-size="14" lengthAdjust="spacing" textLength="120" x="1699" y="478.6389">fecha: timestamp</text></g><path d="M11,131.1 L11,171.3656 A0,0 0 0 0 11,171.3656 L201,171.3656 A0,0 0 0 0 201,171.3656 L201,155.2328 L240.5,174.3753 L201,147.2328 L201,141.1 L191,131.1 L11,131.1 A0,0 0 0 0 11,131.1 " fill="#282828" style="stroke:#33FF33;stroke-width:1.0;"/><path d="M191,131.1 L191,141.1 L201,141.1 L191,131.1 " fill="#282828" style="stroke:#33FF33;stroke-width:1.0;"/><text fill="#33FF33" font-family="Verdana" font-size="13" lengthAdjust="spacing" textLength="122" x="17" y="148.1669">This field must only</text><text fill="#33FF33" font-family="Verdana" font-size="13" lengthAdjust="spacing" textLength="169" x="17" y="163.2997">contain hashed passwords</text><!--link Usuario to Sesion--><g id="link_Usuario_Sesion"><path codeLine="129" d="M313,203.02 C313,254.54 313,319.44 313,374.7 " fill="none" id="Usuario-Sesion" style="stroke:#33FF33;stroke-width:1.0;"/><line style="stroke:#33FF33;stroke-width:1.0;" x1="309" x2="317" y1="199.02" y2="199.02"/><line style="stroke:#33FF33;stroke-width:1.0;" x1="309" x2="317" y1="202.02" y2="202.02"/><line style="stroke:#33FF33;stroke-width:1.0;" x1="313" x2="313" y1="203.02" y2="195.02"/><line style="stroke:#33FF33;stroke-width:1.0;" x1="313" x2="319" y1="384.7" y2="392.7"/><line style="stroke:#33FF33;stroke-width:1.0;" x1="313" x2="307" y1="384.7" y2="392.7"/><line style="stroke:#33FF33;stroke-width:1.0;" x1="313" x2="313" y1="384.7" y2="392.7"/><ellipse cx="313" cy="378.7" fill="none" rx="4" ry="4" style="stroke:#33FF33;stroke-width:1.0;"/></g><!--link Paciente to Antecedente_Paciente--><g id="link_Paciente_Antecedente_Paciente"><path codeLine="131" d="M723.75,308.59 C723.75,466.55 723.75,685.73 723.75,794.42 " fill="none" id="Paciente-Antecedente_Paciente" style="stroke:#33FF33;stroke-width:1.0;"/><line style="stroke:#33FF33;stroke-width:1.0;" x1="719.75" x2="727.75" y1="304.59" y2="304.59"/><line style="stroke:#33FF33;stroke-width:1.0;" x1="719.75" x2="727.75" y1="307.59" y2="307.59"/><line style="stroke:#33FF33;stroke-width:1.0;" x1="723.75" x2="723.75" y1="308.59" y2="300.59"/><line style="stroke:#33FF33;stroke-width:1.0;" x1="723.75" x2="729.75" y1="804.42" y2="812.42"/><line style="stroke:#33FF33;stroke-width:1.0;" x1="723.75" x2="717.75" y1="804.42" y2="812.42"/><line style="stroke:#33FF33;stroke-width:1.0;" x1="723.75" x2="723.75" y1="804.42" y2="812.42"/><ellipse cx="723.75" cy="798.42" fill="none" rx="4" ry="4" style="stroke:#33FF33;stroke-width:1.0;"/></g><!--link Paciente to Contacto_Emergencia--><g id="link_Paciente_Contacto_Emergencia"><path codeLine="132" d="M614.83,308.77 C614.83,338.64 614.83,352.34 614.83,376.54 " fill="none" id="Paciente-Contacto_Emergencia" style="stroke:#33FF33;stroke-width:1.0;"/><line style="stroke:#33FF33;stroke-width:1.0;" x1="610.83" x2="618.83" y1="304.77" y2="304.77"/><line style="stroke:#33FF33;stroke-width:1.0;" x1="610.83" x2="618.83" y1="307.77" y2="307.77"/><line style="stroke:#33FF33;stroke-width:1.0;" x1="614.83" x2="614.83" y1="308.77" y2="300.77"/><line style="stroke:#33FF33;stroke-width:1.0;" x1="618.83" x2="610.83" y1="380.54" y2="380.54"/><line style="stroke:#33FF33;stroke-width:1.0;" x1="618.83" x2="610.83" y1="377.54" y2="377.54"/><line style="stroke:#33FF33;stroke-width:1.0;" x1="614.83" x2="614.83" y1="376.54" y2="384.54"/></g><!--link Paciente to Contacto_Emergencia--><g id="link_Paciente_Contacto_Emergencia"><path codeLine="133" d="M642.67,308.77 C642.67,338.64 642.67,345.34 642.67,369.54 " fill="none" id="Paciente-Contacto_Emergencia-1" style="stroke:#33FF33;stroke-width:1.0;"/><line style="stroke:#33FF33;stroke-width:1.0;" x1="638.67" x2="646.67" y1="304.77" y2="304.77"/><line style="stroke:#33FF33;stroke-width:1.0;" x1="638.67" x2="646.67" y1="307.77" y2="307.77"/><line style="stroke:#33FF33;stroke-width:1.0;" x1="642.67" x2="642.67" y1="308.77" y2="300.77"/><line style="stroke:#33FF33;stroke-width:1.0;" x1="642.67" x2="642.67" y1="373.54" y2="384.54"/><ellipse cx="642.67" cy="373.54" fill="none" rx="4" ry="4" style="stroke:#33FF33;stroke-width:1.0;"/><line style="stroke:#33FF33;stroke-width:1.0;" x1="646.67" x2="638.67" y1="380.54" y2="380.54"/></g><!--link Paciente to Visita--><g id="link_Paciente_Visita"><path codeLine="135" d="M819.25,308.9 C819.25,348.91 819.25,373.58 819.25,373.58 C819.25,373.58 1210.83,373.58 1411.62,373.58 " fill="none" id="Paciente-Visita" style="stroke:#33FF33;stroke-width:1.0;"/><line style="stroke:#33FF33;stroke-width:1.0;" x1="815.25" x2="823.25" y1="304.9" y2="304.9"/><line style="stroke:#33FF33;stroke-width:1.0;" x1="815.25" x2="823.25" y1="307.9" y2="307.9"/><line style="stroke:#33FF33;stroke-width:1.0;" x1="819.25" x2="819.25" y1="308.9" y2="300.9"/><line style="stroke:#33FF33;stroke-width:1.0;" x1="1421.62" x2="1429.62" y1="373.58" y2="367.58"/><line style="stroke:#33FF33;stroke-width:1.0;" x1="1421.62" x2="1429.62" y1="373.58" y2="379.58"/><line style="stroke:#33FF33;stroke-width:1.0;" x1="1421.62" x2="1429.62" y1="373.58" y2="373.58"/><ellipse cx="1415.62" cy="373.58" fill="none" rx="4" ry="4" style="stroke:#33FF33;stroke-width:1.0;"/></g><!--link Visita to Examen_Fisico--><g id="link_Visita_Examen_Fisico"><path codeLine="136" d="M1538,526.93 C1538,546.16 1538,543.81 1538,563.38 " fill="none" id="Visita-Examen_Fisico" style="stroke:#33FF33;stroke-width:1.0;"/><line style="stroke:#33FF33;stroke-width:1.0;" x1="1534" x2="1542" y1="522.93" y2="522.93"/><line style="stroke:#33FF33;stroke-width:1.0;" x1="1534" x2="1542" y1="525.93" y2="525.93"/><line style="stroke:#33FF33;stroke-width:1.0;" x1="1538" x2="1538" y1="526.93" y2="518.93"/><line style="stroke:#33FF33;stroke-width:1.0;" x1="1538" x2="1538" y1="567.38" y2="578.38"/><ellipse cx="1538" cy="567.38" fill="none" rx="4" ry="4" style="stroke:#33FF33;stroke-width:1.0;"/><line style="stroke:#33FF33;stroke-width:1.0;" x1="1542" x2="1534" y1="574.38" y2="574.38"/></g><!--link Paciente to Respuesta_Formulario--><g id="link_Paciente_Respuesta_Formulario"><path codeLine="138" d="M869.25,251.58 C1147.03,251.58 1741.67,251.58 1741.67,251.58 C1741.67,251.58 1741.67,328.9 1741.67,384.56 " fill="none" id="Paciente-Respuesta_Formulario" style="stroke:#33FF33;stroke-width:1.0;"/><line style="stroke:#33FF33;stroke-width:1.0;" x1="865.25" x2="865.25" y1="255.58" y2="247.58"/><line style="stroke:#33FF33;stroke-width:1.0;" x1="868.25" x2="868.25" y1="255.58" y2="247.58"/><line style="stroke:#33FF33;stroke-width:1.0;" x1="869.25" x2="861.25" y1="251.58" y2="251.58"/><line style="stroke:#33FF33;stroke-width:1.0;" x1="1741.67" x2="1747.67" y1="384.56" y2="392.56"/><line style="stroke:#33FF33;stroke-width:1.0;" x1="1741.67" x2="1735.67" y1="384.56" y2="392.56"/><line style="stroke:#33FF33;stroke-width:1.0;" x1="1741.67" x2="1741.67" y1="384.56" y2="392.56"/><line style="stroke:#33FF33;stroke-width:1.0;" x1="1745.67" x2="1737.67" y1="382.56" y2="382.56"/></g><!--link Formulario to Respuesta_Formulario--><g id="link_Formulario_Respuesta_Formulario"><path codeLine="139" d="M1802.33,211 C1802.33,263.49 1802.33,332.14 1802.33,384.65 " fill="none" id="Formulario-Respuesta_Formulario" style="stroke:#33FF33;stroke-width:1.0;"/><line style="stroke:#33FF33;stroke-width:1.0;" x1="1798.33" x2="1806.33" y1="207" y2="207"/><line style="stroke:#33FF33;stroke-width:1.0;" x1="1798.33" x2="1806.33" y1="210" y2="210"/><line style="stroke:#33FF33;stroke-width:1.0;" x1="1802.33" x2="1802.33" y1="211" y2="203"/><line style="stroke:#33FF33;stroke-width:1.0;" x1="1802.33" x2="1808.33" y1="384.65" y2="392.65"/><line style="stroke:#33FF33;stroke-width:1.0;" x1="1802.33" x2="1796.33" y1="384.65" y2="392.65"/><line style="stroke:#33FF33;stroke-width:1.0;" x1="1802.33" x2="1802.33" y1="384.65" y2="392.65"/><line style="stroke:#33FF33;stroke-width:1.0;" x1="1806.33" x2="1798.33" y1="382.65" y2="382.65"/></g><!--link Antecedente_Paciente to Antecedente--><g id="link_Antecedente_Paciente_Antecedente"><path codeLine="141" d="M816,930.47 C816,949.7 816,955.09 816,973.6 " fill="none" id="Antecedente_Paciente-Antecedente" style="stroke:#33FF33;stroke-width:1.0;"/><line style="stroke:#33FF33;stroke-width:1.0;" x1="816" x2="810" y1="930.47" y2="922.47"/><line style="stroke:#33FF33;stroke-width:1.0;" x1="816" x2="822" y1="930.47" y2="922.47"/><line style="stroke:#33FF33;stroke-width:1.0;" x1="816" x2="816" y1="930.47" y2="922.47"/><line style="stroke:#33FF33;stroke-width:1.0;" x1="812" x2="820" y1="932.47" y2="932.47"/><line style="stroke:#33FF33;stroke-width:1.0;" x1="820" x2="812" y1="977.6" y2="977.6"/><line style="stroke:#33FF33;stroke-width:1.0;" x1="820" x2="812" y1="974.6" y2="974.6"/><line style="stroke:#33FF33;stroke-width:1.0;" x1="816" x2="816" y1="973.6" y2="981.6"/></g><!--link Visita to Tratamiento_Visita--><g id="link_Visita_Tratamiento_Visita"><path codeLine="143" d="M1421.59,506.58 C1348.49,506.58 1273.33,506.58 1273.33,506.58 C1273.33,506.58 1273.33,553.89 1273.33,600.83 " fill="none" id="Visita-Tratamiento_Visita" style="stroke:#33FF33;stroke-width:1.0;"/><line style="stroke:#33FF33;stroke-width:1.0;" x1="1425.59" x2="1425.59" y1="502.58" y2="510.58"/><line style="stroke:#33FF33;stroke-width:1.0;" x1="1422.59" x2="1422.59" y1="502.58" y2="510.58"/><line style="stroke:#33FF33;stroke-width:1.0;" x1="1421.59" x2="1429.59" y1="506.58" y2="506.58"/><line style="stroke:#33FF33;stroke-width:1.0;" x1="1273.33" x2="1279.33" y1="610.83" y2="618.83"/><line style="stroke:#33FF33;stroke-width:1.0;" x1="1273.33" x2="1267.33" y1="610.83" y2="618.83"/><line style="stroke:#33FF33;stroke-width:1.0;" x1="1273.33" x2="1273.33" y1="610.83" y2="618.83"/><ellipse cx="1273.33" cy="604.83" fill="none" rx="4" ry="4" style="stroke:#33FF33;stroke-width:1.0;"/></g><!--link Tratamiento to Tratamiento_Visita--><g id="link_Tratamiento_Tratamiento_Visita"><path codeLine="144" d="M1046.73,439.58 C1057.87,439.58 1057,439.58 1057,439.58 C1057,439.58 1057,650.58 1057,650.58 C1057,650.58 1065.47,650.58 1097.94,650.58 " fill="none" id="Tratamiento-Tratamiento_Visita" style="stroke:#33FF33;stroke-width:1.0;"/><line style="stroke:#33FF33;stroke-width:1.0;" x1="1042.73" x2="1042.73" y1="443.58" y2="435.58"/><line style="stroke:#33FF33;stroke-width:1.0;" x1="1045.73" x2="1045.73" y1="443.58" y2="435.58"/><line style="stroke:#33FF33;stroke-width:1.0;" x1="1046.73" x2="1038.73" y1="439.58" y2="439.58"/><line style="stroke:#33FF33;stroke-width:1.0;" x1="1107.94" x2="1115.94" y1="650.58" y2="644.58"/><line style="stroke:#33FF33;stroke-width:1.0;" x1="1107.94" x2="1115.94" y1="650.58" y2="656.58"/><line style="stroke:#33FF33;stroke-width:1.0;" x1="1107.94" x2="1115.94" y1="650.58" y2="650.58"/><ellipse cx="1101.94" cy="650.58" fill="none" rx="4" ry="4" style="stroke:#33FF33;stroke-width:1.0;"/></g><!--link Tratamiento to Tratamiento_Antecedente--><g id="link_Tratamiento_Tratamiento_Antecedente"><path codeLine="146" d="M908,486.13 C908,525.12 908,559.38 908,601.03 " fill="none" id="Tratamiento-Tratamiento_Antecedente" style="stroke:#33FF33;stroke-width:1.0;"/><line style="stroke:#33FF33;stroke-width:1.0;" x1="904" x2="912" y1="482.13" y2="482.13"/><line style="stroke:#33FF33;stroke-width:1.0;" x1="904" x2="912" y1="485.13" y2="485.13"/><line style="stroke:#33FF33;stroke-width:1.0;" x1="908" x2="908" y1="486.13" y2="478.13"/><line style="stroke:#33FF33;stroke-width:1.0;" x1="908" x2="914" y1="611.03" y2="619.03"/><line style="stroke:#33FF33;stroke-width:1.0;" x1="908" x2="902" y1="611.03" y2="619.03"/><line style="stroke:#33FF33;stroke-width:1.0;" x1="908" x2="908" y1="611.03" y2="619.03"/><ellipse cx="908" cy="605.03" fill="none" rx="4" ry="4" style="stroke:#33FF33;stroke-width:1.0;"/></g><!--link Tratamiento_Antecedente to Antecedente_Paciente--><g id="link_Tratamiento_Antecedente_Antecedente_Paciente"><path codeLine="147" d="M881,730.52 C881,760.44 881,773.37 881,804.73 " fill="none" id="Tratamiento_Antecedente-Antecedente_Paciente" style="stroke:#33FF33;stroke-width:1.0;"/><line style="stroke:#33FF33;stroke-width:1.0;" x1="881" x2="875" y1="720.52" y2="712.52"/><line style="stroke:#33FF33;stroke-width:1.0;" x1="881" x2="887" y1="720.52" y2="712.52"/><line style="stroke:#33FF33;stroke-width:1.0;" x1="881" x2="881" y1="720.52" y2="712.52"/><ellipse cx="881" cy="726.52" fill="none" rx="4" ry="4" style="stroke:#33FF33;stroke-width:1.0;"/><line style="stroke:#33FF33;stroke-width:1.0;" x1="885" x2="877" y1="808.73" y2="808.73"/><line style="stroke:#33FF33;stroke-width:1.0;" x1="885" x2="877" y1="805.73" y2="805.73"/><line style="stroke:#33FF33;stroke-width:1.0;" x1="881" x2="881" y1="804.73" y2="812.73"/></g><!--link Detalle_Farmacologia to Tratamiento_Visita--><g id="link_Detalle_Farmacologia_Tratamiento_Visita"><path codeLine="149" d="M1194.67,509.55 C1194.67,547.61 1194.67,574.7 1194.67,610.85 " fill="none" id="Detalle_Farmacologia-Tratamiento_Visita" style="stroke:#33FF33;stroke-width:1.0;"/><line style="stroke:#33FF33;stroke-width:1.0;" x1="1194.67" x2="1194.67" y1="505.55" y2="494.55"/><ellipse cx="1194.67" cy="505.55" fill="none" rx="4" ry="4" style="stroke:#33FF33;stroke-width:1.0;"/><line style="stroke:#33FF33;stroke-width:1.0;" x1="1190.67" x2="1198.67" y1="498.55" y2="498.55"/><line style="stroke:#33FF33;stroke-width:1.0;" x1="1198.67" x2="1190.67" y1="614.85" y2="614.85"/><line style="stroke:#33FF33;stroke-width:1.0;" x1="1198.67" x2="1190.67" y1="611.85" y2="611.85"/><line style="stroke:#33FF33;stroke-width:1.0;" x1="1194.67" x2="1194.67" y1="610.85" y2="618.85"/></g><!--link Detalle_Farmacologia to Tratamiento_Antecedente--><g id="link_Detalle_Farmacologia_Tratamiento_Antecedente"><path codeLine="150" d="M1094.5,509.43 C1094.5,580.85 1094.5,681.58 1094.5,681.58 C1094.5,681.58 1079.32,681.58 1049.34,681.58 " fill="none" id="Detalle_Farmacologia-Tratamiento_Antecedente" style="stroke:#33FF33;stroke-width:1.0;"/><line style="stroke:#33FF33;stroke-width:1.0;" x1="1094.5" x2="1094.5" y1="505.43" y2="494.43"/><ellipse cx="1094.5" cy="505.43" fill="none" rx="4" ry="4" style="stroke:#33FF33;stroke-width:1.0;"/><line style="stroke:#33FF33;stroke-width:1.0;" x1="1090.5" x2="1098.5" y1="498.43" y2="498.43"/><line style="stroke:#33FF33;stroke-width:1.0;" x1="1045.34" x2="1045.34" y1="685.58" y2="677.58"/><line style="stroke:#33FF33;stroke-width:1.0;" x1="1048.34" x2="1048.34" y1="685.58" y2="677.58"/><line style="stroke:#33FF33;stroke-width:1.0;" x1="1049.34" x2="1041.34" y1="681.58" y2="681.58"/></g><!--link Antecedente to Tipo_Antecedente--><g id="link_Antecedente_Tipo_Antecedente"><path codeLine="152" d="M816,1093.13 C816,1112.31 816,1108.26 816,1126.53 " fill="none" id="Antecedente-Tipo_Antecedente" style="stroke:#33FF33;stroke-width:1.0;"/><line style="stroke:#33FF33;stroke-width:1.0;" x1="816" x2="810" y1="1083.13" y2="1075.13"/><line style="stroke:#33FF33;stroke-width:1.0;" x1="816" x2="822" y1="1083.13" y2="1075.13"/><line style="stroke:#33FF33;stroke-width:1.0;" x1="816" x2="816" y1="1083.13" y2="1075.13"/><ellipse cx="816" cy="1089.13" fill="none" rx="4" ry="4" style="stroke:#33FF33;stroke-width:1.0;"/><line style="stroke:#33FF33;stroke-width:1.0;" x1="820" x2="812" y1="1130.53" y2="1130.53"/><line style="stroke:#33FF33;stroke-width:1.0;" x1="820" x2="812" y1="1127.53" y2="1127.53"/><line style="stroke:#33FF33;stroke-width:1.0;" x1="816" x2="816" y1="1126.53" y2="1134.53"/></g><!--SRC=[hLTBRzim33v7lqAx3iXXEmP5WM5hBhiCMxUhe4fq8jGM3KdkKYJzxwFViYqtBR3S8Zu-yYCfoX_24GhWoeNjmG5OvX-DBQMJ1S-DXV1S0aSNZiWOs632C__jA-aCyZFZzFl8Am_EoW9s_4awTPIkEo-bzt_HwV7yPV3n2xn1ExW8-0XsQh_TiirctRbo80EGxs0Ay44MPUJzAzeWLK1nLu0xW5L63b162zM9TvoS6vdpcnjI0bSxlBtjqLjrYyM3IwJc20gymhaaG0uPMamb_KCgKviDiIZfYE55tgqGlA34AcqacUpu0s8Eqax2ydDqMKAU6uqBWOSJXHJpXyx16wBlpG-LMvnI-8vO4oWqb64kpO3-24iv5tNMPAs9u1x8b2Yyj8SbjzeuK8gwOowm6AGmHKdTs58Iu1I6TBgAmr1nyIcgx_vxLzYKukUvubYoBmIaGDTL4r7vDaqVoKXOTiALdjhKFRFGQC1853bQIEivwCaqrX0n7P7985EnhONKUguhaGX9KtCxKqxhC4BUr_MRuWxZDVEuEbhN8CX8jgqpyJuU_ryGiQ3nIdrxgj8HZTNJ46IUWyYaAwJ270z6hdVSjqvx7sd7-L_njau4UaFNWiRg8GTUqeoP-Whkxt1hj2JdhT9ia4ctQYUbaniYuW1hFFuXns6C-Qdvcvh5LwcBWdyVWJDuecmHmIf9QrLkfGK6yuJ9UoxUG_qr9WyMVJ3rZeXkAWSPk8RDw1XEjEAio2XGXUkftRLg-qOjpd3D_drZiIWtRPZIa3swEjg-wlsgAChQT-NaQbVvHbo323mP2WRdNWvvfR20a028ug15GtIgXGhXrMX2kj1adEhCFRgYoYSF5Y8i6qxVmXPeasHgNlaHzISnLzMd8e6V18_wxBKk769AWVSliyjbkyLpzyXYR5XStNbggKsLBfVK6shcAAspG6ldaNLZsLbEEdbcSpadwMCHaw-fiUJEVccpYcHi4j8vSOMnU0MjQrrJYp7NziqBpiCRAyEIA-7IMYJYUQlwX8j4C8ibpnYZDnXmUYC6Zbd_8R3RzIzzTdyqdcS6SisBofEIpPyvQzvSnlAZz4VGmtU1fs7HzQiE_W40]--></g></svg>