<?xml version="1.0" encoding="us-ascii" standalone="no"?><svg xmlns="http://www.w3.org/2000/svg" xmlns:xlink="http://www.w3.org/1999/xlink" contentStyleType="text/css" height="929px" preserveAspectRatio="none" style="width:1030px;height:929px;background:#282828;" version="1.1" viewBox="0 0 1030 929" width="1030px" zoomAndPan="magnify"><defs/><g><rect fill="#282828" height="929" style="stroke:none;stroke-width:1.0;" width="1030" x="0" y="0"/><!--class Usuario--><g id="elem_Usuario"><rect codeLine="3" fill="#282828" height="76.5938" id="Usuario" rx="2.5" ry="2.5" style="stroke:#33FF33;stroke-width:1.0;" width="153" x="15" y="117.93"/><ellipse cx="61.75" cy="131.93" fill="#282828" rx="9" ry="9" style="stroke:#33FF33;stroke-width:1.0;"/><path d="M65.8594,137.93 L58.1406,137.93 L58.1406,125.5394 L65.8594,125.5394 L65.8594,127.6956 L60.5938,127.6956 L60.5938,130.3675 L65.3594,130.3675 L65.3594,132.5238 L60.5938,132.5238 L60.5938,135.7738 L65.8594,135.7738 L65.8594,137.93 Z " fill="#33FF33"/><text fill="#33FF33" font-family="Verdana" font-size="14" lengthAdjust="spacing" textLength="52" x="79.25" y="136.7767">Usuario</text><line style="stroke:#33FF33;stroke-width:1.0;" x1="16" x2="167" y1="145.93" y2="145.93"/><ellipse cx="26" cy="159.5784" fill="#282828" rx="3" ry="3" style="stroke:#33FF33;stroke-width:1.0;"/><text fill="#33FF33" font-family="Verdana" font-size="14" lengthAdjust="spacing" textLength="129" x="33" y="162.9251">username: varchar</text><ellipse cx="26" cy="175.8753" fill="#282828" rx="3" ry="3" style="stroke:#33FF33;stroke-width:1.0;"/><text fill="#33FF33" font-family="Verdana" font-size="14" lengthAdjust="spacing" textLength="126" x="33" y="179.222">password: varchar</text><line style="stroke:#33FF33;stroke-width:1.0;" x1="16" x2="167" y1="186.5238" y2="186.5238"/></g><!--class Sesion--><g id="elem_Sesion"><rect codeLine="8" fill="#282828" height="92.8906" id="Sesion" rx="2.5" ry="2.5" style="stroke:#33FF33;stroke-width:1.0;" width="159" x="12" y="393.04"/><ellipse cx="64.25" cy="407.04" fill="#282828" rx="9" ry="9" style="stroke:#33FF33;stroke-width:1.0;"/><path d="M68.3594,413.04 L60.6406,413.04 L60.6406,400.6494 L68.3594,400.6494 L68.3594,402.8056 L63.0938,402.8056 L63.0938,405.4775 L67.8594,405.4775 L67.8594,407.6338 L63.0938,407.6338 L63.0938,410.8838 L68.3594,410.8838 L68.3594,413.04 Z " fill="#33FF33"/><text fill="#33FF33" font-family="Verdana" font-size="14" lengthAdjust="spacing" textLength="47" x="81.75" y="411.8867">Sesion</text><line style="stroke:#33FF33;stroke-width:1.0;" x1="13" x2="170" y1="421.04" y2="421.04"/><ellipse cx="23" cy="434.6884" fill="#282828" rx="3" ry="3" style="stroke:#33FF33;stroke-width:1.0;"/><text fill="#33FF33" font-family="Verdana" font-size="14" lengthAdjust="spacing" textLength="99" x="30" y="438.0351">token: varchar</text><line style="stroke:#33FF33;stroke-width:1.0;" x1="13" x2="170" y1="445.3369" y2="445.3369"/><ellipse cx="23" cy="458.9853" fill="#282828" rx="3" ry="3" style="stroke:#33FF33;stroke-width:1.0;"/><text fill="#33FF33" font-family="Verdana" font-size="14" lengthAdjust="spacing" textLength="129" x="30" y="462.332">username: varchar</text><ellipse cx="23" cy="475.2822" fill="#282828" rx="3" ry="3" style="stroke:#33FF33;stroke-width:1.0;"/><text fill="#33FF33" font-family="Verdana" font-size="14" lengthAdjust="spacing" textLength="135" x="30" y="478.6289">created: timestamp</text></g><!--class Contacto_Emergencia--><g id="elem_Contacto_Emergencia"><rect codeLine="15" fill="#282828" height="109.1875" id="Contacto_Emergencia" rx="2.5" ry="2.5" style="stroke:#33FF33;stroke-width:1.0;" width="180" x="205.5" y="384.89"/><ellipse cx="218.5" cy="398.89" fill="#282828" rx="9" ry="9" style="stroke:#33FF33;stroke-width:1.0;"/><path d="M222.6094,404.89 L214.8906,404.89 L214.8906,392.4994 L222.6094,392.4994 L222.6094,394.6556 L217.3438,394.6556 L217.3438,397.3275 L222.1094,397.3275 L222.1094,399.4838 L217.3438,399.4838 L217.3438,402.7338 L222.6094,402.7338 L222.6094,404.89 Z " fill="#33FF33"/><text fill="#33FF33" font-family="Verdana" font-size="14" lengthAdjust="spacing" textLength="152" x="230.5" y="403.7367">Contacto_Emergencia</text><line style="stroke:#33FF33;stroke-width:1.0;" x1="206.5" x2="384.5" y1="412.89" y2="412.89"/><ellipse cx="216.5" cy="426.5384" fill="#282828" rx="3" ry="3" style="stroke:#33FF33;stroke-width:1.0;"/><text fill="#33FF33" font-family="Verdana" font-size="14" lengthAdjust="spacing" textLength="125" x="223.5" y="429.8851">id_contacto: serial</text><line style="stroke:#33FF33;stroke-width:1.0;" x1="206.5" x2="384.5" y1="437.1869" y2="437.1869"/><ellipse cx="216.5" cy="450.8353" fill="#282828" rx="3" ry="3" style="stroke:#33FF33;stroke-width:1.0;"/><text fill="#33FF33" font-family="Verdana" font-size="14" lengthAdjust="spacing" textLength="113" x="223.5" y="454.182">nombre: varchar</text><ellipse cx="216.5" cy="467.1322" fill="#282828" rx="3" ry="3" style="stroke:#33FF33;stroke-width:1.0;"/><text fill="#33FF33" font-family="Verdana" font-size="14" lengthAdjust="spacing" textLength="138" x="223.5" y="470.4789">parentesco: varchar</text><ellipse cx="216.5" cy="483.4291" fill="#282828" rx="3" ry="3" style="stroke:#33FF33;stroke-width:1.0;"/><text fill="#33FF33" font-family="Verdana" font-size="14" lengthAdjust="spacing" textLength="116" x="223.5" y="486.7757">telefono: varchar</text></g><!--class Paciente--><g id="elem_Paciente"><rect codeLine="23" fill="#282828" height="288.4531" id="Paciente" rx="2.5" ry="2.5" style="stroke:#33FF33;stroke-width:1.0;" width="235" x="395" y="12"/><ellipse cx="478.75" cy="26" fill="#282828" rx="9" ry="9" style="stroke:#33FF33;stroke-width:1.0;"/><path d="M482.8594,32 L475.1406,32 L475.1406,19.6094 L482.8594,19.6094 L482.8594,21.7656 L477.5938,21.7656 L477.5938,24.4375 L482.3594,24.4375 L482.3594,26.5938 L477.5938,26.5938 L477.5938,29.8438 L482.8594,29.8438 L482.8594,32 Z " fill="#33FF33"/><text fill="#33FF33" font-family="Verdana" font-size="14" lengthAdjust="spacing" textLength="60" x="496.25" y="30.8467">Paciente</text><line style="stroke:#33FF33;stroke-width:1.0;" x1="396" x2="629" y1="40" y2="40"/><ellipse cx="406" cy="53.6484" fill="#282828" rx="3" ry="3" style="stroke:#33FF33;stroke-width:1.0;"/><text fill="#33FF33" font-family="Verdana" font-size="14" lengthAdjust="spacing" textLength="103" x="413" y="56.9951">carnet: varchar</text><line style="stroke:#33FF33;stroke-width:1.0;" x1="396" x2="629" y1="64.2969" y2="64.2969"/><ellipse cx="406" cy="77.9453" fill="#282828" rx="3" ry="3" style="stroke:#33FF33;stroke-width:1.0;"/><text fill="#33FF33" font-family="Verdana" font-size="14" lengthAdjust="spacing" textLength="163" x="413" y="81.292">es_estudiante: boolean</text><ellipse cx="406" cy="94.2422" fill="#282828" rx="3" ry="3" style="stroke:#33FF33;stroke-width:1.0;"/><text fill="#33FF33" font-family="Verdana" font-size="14" lengthAdjust="spacing" textLength="121" x="413" y="97.5889">nombres: varchar</text><ellipse cx="406" cy="110.5391" fill="#282828" rx="3" ry="3" style="stroke:#33FF33;stroke-width:1.0;"/><text fill="#33FF33" font-family="Verdana" font-size="14" lengthAdjust="spacing" textLength="120" x="413" y="113.8857">apellidos: varchar</text><ellipse cx="406" cy="126.8359" fill="#282828" rx="3" ry="3" style="stroke:#33FF33;stroke-width:1.0;"/><text fill="#33FF33" font-family="Verdana" font-size="14" lengthAdjust="spacing" textLength="72" x="413" y="130.1826">sexo: char</text><ellipse cx="406" cy="143.1328" fill="#282828" rx="3" ry="3" style="stroke:#33FF33;stroke-width:1.0;"/><text fill="#33FF33" font-family="Verdana" font-size="14" lengthAdjust="spacing" textLength="104" x="413" y="146.4795">correo: varchar</text><ellipse cx="406" cy="159.4297" fill="#282828" rx="3" ry="3" style="stroke:#33FF33;stroke-width:1.0;"/><text fill="#33FF33" font-family="Verdana" font-size="14" lengthAdjust="spacing" textLength="116" x="413" y="162.7764">telefono: varchar</text><ellipse cx="406" cy="175.7266" fill="#282828" rx="3" ry="3" style="stroke:#33FF33;stroke-width:1.0;"/><text fill="#33FF33" font-family="Verdana" font-size="14" lengthAdjust="spacing" textLength="108" x="413" y="179.0732">seguro: varchar</text><ellipse cx="406" cy="192.0234" fill="#282828" rx="3" ry="3" style="stroke:#33FF33;stroke-width:1.0;"/><text fill="#33FF33" font-family="Verdana" font-size="14" lengthAdjust="spacing" textLength="162" x="413" y="195.3701">carrera_o_dept: varchar</text><ellipse cx="406" cy="208.3203" fill="#282828" rx="3" ry="3" style="stroke:#33FF33;stroke-width:1.0;"/><text fill="#33FF33" font-family="Verdana" font-size="14" lengthAdjust="spacing" textLength="161" x="413" y="211.667">fecha_nacimiento: date</text><ellipse cx="406" cy="224.6172" fill="#282828" rx="3" ry="3" style="stroke:#33FF33;stroke-width:1.0;"/><text fill="#33FF33" font-family="Verdana" font-size="14" lengthAdjust="spacing" textLength="140" x="413" y="227.9639">tipo_sangre: varchar</text><ellipse cx="406" cy="240.9141" fill="#282828" rx="3" ry="3" style="stroke:#33FF33;stroke-width:1.0;"/><text fill="#33FF33" font-family="Verdana" font-size="14" lengthAdjust="spacing" textLength="122" x="413" y="244.2607">direccion: varchar</text><ellipse cx="406" cy="257.2109" fill="#282828" rx="3" ry="3" style="stroke:#33FF33;stroke-width:1.0;"/><text fill="#33FF33" font-family="Verdana" font-size="14" lengthAdjust="spacing" textLength="148" x="413" y="260.5576">nota_importante: text</text><ellipse cx="406" cy="273.5078" fill="#282828" rx="3" ry="3" style="stroke:#33FF33;stroke-width:1.0;"/><text fill="#33FF33" font-family="Verdana" font-size="14" lengthAdjust="spacing" textLength="211" x="413" y="276.8545">contacto_emergencia_1: serial</text><text fill="#33FF33" font-family="Verdana" font-size="14" lengthAdjust="spacing" textLength="211" x="413" y="293.1514">contacto_emergencia_2: serial</text></g><!--class Antecedente_Paciente--><g id="elem_Antecedente_Paciente"><rect codeLine="42" fill="#282828" height="92.8906" id="Antecedente_Paciente" rx="2.5" ry="2.5" style="stroke:#33FF33;stroke-width:1.0;" width="185" x="420" y="393.04"/><ellipse cx="433" cy="407.04" fill="#282828" rx="9" ry="9" style="stroke:#33FF33;stroke-width:1.0;"/><path d="M437.1094,413.04 L429.3906,413.04 L429.3906,400.6494 L437.1094,400.6494 L437.1094,402.8056 L431.8438,402.8056 L431.8438,405.4775 L436.6094,405.4775 L436.6094,407.6338 L431.8438,407.6338 L431.8438,410.8838 L437.1094,410.8838 L437.1094,413.04 Z " fill="#33FF33"/><text fill="#33FF33" font-family="Verdana" font-size="14" lengthAdjust="spacing" textLength="157" x="445" y="411.8867">Antecedente_Paciente</text><line style="stroke:#33FF33;stroke-width:1.0;" x1="421" x2="604" y1="421.04" y2="421.04"/><ellipse cx="431" cy="434.6884" fill="#282828" rx="3" ry="3" style="stroke:#33FF33;stroke-width:1.0;"/><text fill="#33FF33" font-family="Verdana" font-size="14" lengthAdjust="spacing" textLength="105" x="438" y="438.0351">paciente: serial</text><ellipse cx="431" cy="450.9853" fill="#282828" rx="3" ry="3" style="stroke:#33FF33;stroke-width:1.0;"/><text fill="#33FF33" font-family="Verdana" font-size="14" lengthAdjust="spacing" textLength="134" x="438" y="454.332">antecedente: serial</text><line style="stroke:#33FF33;stroke-width:1.0;" x1="421" x2="604" y1="461.6338" y2="461.6338"/><ellipse cx="431" cy="475.2822" fill="#282828" rx="3" ry="3" style="stroke:#33FF33;stroke-width:1.0;"/><text fill="#33FF33" font-family="Verdana" font-size="14" lengthAdjust="spacing" textLength="120" x="438" y="478.6289">fecha_inicio: date</text></g><!--class Antecedente--><g id="elem_Antecedente"><rect codeLine="49" fill="#282828" height="92.8906" id="Antecedente" rx="2.5" ry="2.5" style="stroke:#33FF33;stroke-width:1.0;" width="230" x="169.5" y="619.27"/><ellipse cx="235.75" cy="633.27" fill="#282828" rx="9" ry="9" style="stroke:#33FF33;stroke-width:1.0;"/><path d="M239.8594,639.27 L232.1406,639.27 L232.1406,626.8794 L239.8594,626.8794 L239.8594,629.0356 L234.5938,629.0356 L234.5938,631.7075 L239.3594,631.7075 L239.3594,633.8638 L234.5938,633.8638 L234.5938,637.1138 L239.8594,637.1138 L239.8594,639.27 Z " fill="#33FF33"/><text fill="#33FF33" font-family="Verdana" font-size="14" lengthAdjust="spacing" textLength="90" x="253.25" y="638.1167">Antecedente</text><line style="stroke:#33FF33;stroke-width:1.0;" x1="170.5" x2="398.5" y1="647.27" y2="647.27"/><ellipse cx="180.5" cy="660.9184" fill="#282828" rx="3" ry="3" style="stroke:#33FF33;stroke-width:1.0;"/><text fill="#33FF33" font-family="Verdana" font-size="14" lengthAdjust="spacing" textLength="206" x="187.5" y="664.2651">id_detalle_antecedente: serial</text><line style="stroke:#33FF33;stroke-width:1.0;" x1="170.5" x2="398.5" y1="671.5669" y2="671.5669"/><ellipse cx="180.5" cy="685.2153" fill="#282828" rx="3" ry="3" style="stroke:#33FF33;stroke-width:1.0;"/><text fill="#33FF33" font-family="Verdana" font-size="14" lengthAdjust="spacing" textLength="139" x="187.5" y="688.562">descripcion: varchar</text><ellipse cx="180.5" cy="701.5122" fill="#282828" rx="3" ry="3" style="stroke:#33FF33;stroke-width:1.0;"/><text fill="#33FF33" font-family="Verdana" font-size="14" lengthAdjust="spacing" textLength="85" x="187.5" y="704.8589">tipo: varchar</text></g><!--class Tratamiento--><g id="elem_Tratamiento"><rect codeLine="56" fill="#282828" height="92.8906" id="Tratamiento" rx="2.5" ry="2.5" style="stroke:#33FF33;stroke-width:1.0;" width="209" x="434" y="619.27"/><ellipse cx="493.25" cy="633.27" fill="#282828" rx="9" ry="9" style="stroke:#33FF33;stroke-width:1.0;"/><path d="M497.3594,639.27 L489.6406,639.27 L489.6406,626.8794 L497.3594,626.8794 L497.3594,629.0356 L492.0938,629.0356 L492.0938,631.7075 L496.8594,631.7075 L496.8594,633.8638 L492.0938,633.8638 L492.0938,637.1138 L497.3594,637.1138 L497.3594,639.27 Z " fill="#33FF33"/><text fill="#33FF33" font-family="Verdana" font-size="14" lengthAdjust="spacing" textLength="83" x="510.75" y="638.1167">Tratamiento</text><line style="stroke:#33FF33;stroke-width:1.0;" x1="435" x2="642" y1="647.27" y2="647.27"/><ellipse cx="445" cy="660.9184" fill="#282828" rx="3" ry="3" style="stroke:#33FF33;stroke-width:1.0;"/><text fill="#33FF33" font-family="Verdana" font-size="14" lengthAdjust="spacing" textLength="143" x="452" y="664.2651">id_tratamiento: serial</text><line style="stroke:#33FF33;stroke-width:1.0;" x1="435" x2="642" y1="671.5669" y2="671.5669"/><ellipse cx="445" cy="685.2153" fill="#282828" rx="3" ry="3" style="stroke:#33FF33;stroke-width:1.0;"/><text fill="#33FF33" font-family="Verdana" font-size="14" lengthAdjust="spacing" textLength="139" x="452" y="688.562">descripcion: varchar</text><text fill="#33FF33" font-family="Verdana" font-size="14" lengthAdjust="spacing" textLength="185" x="452" y="704.8589">detalle_farmacologia: serial</text></g><!--class Detalle_Farmacologia--><g id="elem_Detalle_Farmacologia"><rect codeLine="63" fill="#282828" height="109.1875" id="Detalle_Farmacologia" rx="2.5" ry="2.5" style="stroke:#33FF33;stroke-width:1.0;" width="228" x="370.5" y="812.9"/><ellipse cx="407.8" cy="826.9" fill="#282828" rx="9" ry="9" style="stroke:#33FF33;stroke-width:1.0;"/><path d="M411.9094,832.9 L404.1906,832.9 L404.1906,820.5094 L411.9094,820.5094 L411.9094,822.6656 L406.6438,822.6656 L406.6438,825.3375 L411.4094,825.3375 L411.4094,827.4938 L406.6438,827.4938 L406.6438,830.7438 L411.9094,830.7438 L411.9094,832.9 Z " fill="#33FF33"/><text fill="#33FF33" font-family="Verdana" font-size="14" lengthAdjust="spacing" textLength="146" x="425.2" y="831.7467">Detalle_Farmacologia</text><line style="stroke:#33FF33;stroke-width:1.0;" x1="371.5" x2="597.5" y1="840.9" y2="840.9"/><ellipse cx="381.5" cy="854.5484" fill="#282828" rx="3" ry="3" style="stroke:#33FF33;stroke-width:1.0;"/><text fill="#33FF33" font-family="Verdana" font-size="14" lengthAdjust="spacing" textLength="204" x="388.5" y="857.8951">id_detalle_farmacologia: serial</text><line style="stroke:#33FF33;stroke-width:1.0;" x1="371.5" x2="597.5" y1="865.1969" y2="865.1969"/><ellipse cx="381.5" cy="878.8453" fill="#282828" rx="3" ry="3" style="stroke:#33FF33;stroke-width:1.0;"/><text fill="#33FF33" font-family="Verdana" font-size="14" lengthAdjust="spacing" textLength="161" x="388.5" y="882.192">dosis: double precision</text><ellipse cx="381.5" cy="895.1422" fill="#282828" rx="3" ry="3" style="stroke:#33FF33;stroke-width:1.0;"/><text fill="#33FF33" font-family="Verdana" font-size="14" lengthAdjust="spacing" textLength="150" x="388.5" y="898.4889">unidad_dosis: varchar</text><ellipse cx="381.5" cy="911.4391" fill="#282828" rx="3" ry="3" style="stroke:#33FF33;stroke-width:1.0;"/><text fill="#33FF33" font-family="Verdana" font-size="14" lengthAdjust="spacing" textLength="174" x="388.5" y="914.7857">frecuencia_dosis: integer</text></g><!--class Tratamiento_Visita--><g id="elem_Tratamiento_Visita"><rect codeLine="71" fill="#282828" height="76.5938" id="Tratamiento_Visita" rx="2.5" ry="2.5" style="stroke:#33FF33;stroke-width:1.0;" width="154" x="633.5" y="829.2"/><ellipse cx="646.5" cy="843.2" fill="#282828" rx="9" ry="9" style="stroke:#33FF33;stroke-width:1.0;"/><path d="M650.6094,849.2 L642.8906,849.2 L642.8906,836.8094 L650.6094,836.8094 L650.6094,838.9656 L645.3438,838.9656 L645.3438,841.6375 L650.1094,841.6375 L650.1094,843.7938 L645.3438,843.7938 L645.3438,847.0438 L650.6094,847.0438 L650.6094,849.2 Z " fill="#33FF33"/><text fill="#33FF33" font-family="Verdana" font-size="14" lengthAdjust="spacing" textLength="126" x="658.5" y="848.0467">Tratamiento_Visita</text><line style="stroke:#33FF33;stroke-width:1.0;" x1="634.5" x2="786.5" y1="857.2" y2="857.2"/><ellipse cx="644.5" cy="870.8484" fill="#282828" rx="3" ry="3" style="stroke:#33FF33;stroke-width:1.0;"/><text fill="#33FF33" font-family="Verdana" font-size="14" lengthAdjust="spacing" textLength="79" x="651.5" y="874.1951">visita: serial</text><ellipse cx="644.5" cy="887.1453" fill="#282828" rx="3" ry="3" style="stroke:#33FF33;stroke-width:1.0;"/><text fill="#33FF33" font-family="Verdana" font-size="14" lengthAdjust="spacing" textLength="124" x="651.5" y="890.492">tratamiento: serial</text><line style="stroke:#33FF33;stroke-width:1.0;" x1="634.5" x2="786.5" y1="897.7938" y2="897.7938"/></g><!--class Visita--><g id="elem_Visita"><rect codeLine="76" fill="#282828" height="158.0781" id="Visita" rx="2.5" ry="2.5" style="stroke:#33FF33;stroke-width:1.0;" width="166" x="640.5" y="360.45"/><ellipse cx="701.75" cy="374.45" fill="#282828" rx="9" ry="9" style="stroke:#33FF33;stroke-width:1.0;"/><path d="M705.8594,380.45 L698.1406,380.45 L698.1406,368.0594 L705.8594,368.0594 L705.8594,370.2156 L700.5938,370.2156 L700.5938,372.8875 L705.3594,372.8875 L705.3594,375.0438 L700.5938,375.0438 L700.5938,378.2938 L705.8594,378.2938 L705.8594,380.45 Z " fill="#33FF33"/><text fill="#33FF33" font-family="Verdana" font-size="14" lengthAdjust="spacing" textLength="36" x="719.25" y="379.2967">Visita</text><line style="stroke:#33FF33;stroke-width:1.0;" x1="641.5" x2="805.5" y1="388.45" y2="388.45"/><ellipse cx="651.5" cy="402.0984" fill="#282828" rx="3" ry="3" style="stroke:#33FF33;stroke-width:1.0;"/><text fill="#33FF33" font-family="Verdana" font-size="14" lengthAdjust="spacing" textLength="98" x="658.5" y="405.4451">id_visita: serial</text><line style="stroke:#33FF33;stroke-width:1.0;" x1="641.5" x2="805.5" y1="412.7469" y2="412.7469"/><ellipse cx="651.5" cy="426.3953" fill="#282828" rx="3" ry="3" style="stroke:#33FF33;stroke-width:1.0;"/><text fill="#33FF33" font-family="Verdana" font-size="14" lengthAdjust="spacing" textLength="105" x="658.5" y="429.742">paciente: serial</text><ellipse cx="651.5" cy="442.6922" fill="#282828" rx="3" ry="3" style="stroke:#33FF33;stroke-width:1.0;"/><text fill="#33FF33" font-family="Verdana" font-size="14" lengthAdjust="spacing" textLength="105" x="658.5" y="446.0389">motivo: varchar</text><ellipse cx="651.5" cy="458.9891" fill="#282828" rx="3" ry="3" style="stroke:#33FF33;stroke-width:1.0;"/><text fill="#33FF33" font-family="Verdana" font-size="14" lengthAdjust="spacing" textLength="120" x="658.5" y="462.3357">fecha: timestamp</text><ellipse cx="651.5" cy="475.2859" fill="#282828" rx="3" ry="3" style="stroke:#33FF33;stroke-width:1.0;"/><text fill="#33FF33" font-family="Verdana" font-size="14" lengthAdjust="spacing" textLength="115" x="658.5" y="478.6326">diagnostico: text</text><ellipse cx="651.5" cy="491.5828" fill="#282828" rx="3" ry="3" style="stroke:#33FF33;stroke-width:1.0;"/><text fill="#33FF33" font-family="Verdana" font-size="14" lengthAdjust="spacing" textLength="104" x="658.5" y="494.9295">referencia: text</text><text fill="#33FF33" font-family="Verdana" font-size="14" lengthAdjust="spacing" textLength="142" x="658.5" y="511.2264">examen_fisico: serial</text></g><!--class Examen_Fisico--><g id="elem_Examen_Fisico"><rect codeLine="87" fill="#282828" height="174.375" id="Examen_Fisico" rx="2.5" ry="2.5" style="stroke:#33FF33;stroke-width:1.0;" width="238" x="763.5" y="578.53"/><ellipse cx="828.25" cy="592.53" fill="#282828" rx="9" ry="9" style="stroke:#33FF33;stroke-width:1.0;"/><path d="M832.3594,598.53 L824.6406,598.53 L824.6406,586.1394 L832.3594,586.1394 L832.3594,588.2956 L827.0938,588.2956 L827.0938,590.9675 L831.8594,590.9675 L831.8594,593.1238 L827.0938,593.1238 L827.0938,596.3738 L832.3594,596.3738 L832.3594,598.53 Z " fill="#33FF33"/><text fill="#33FF33" font-family="Verdana" font-size="14" lengthAdjust="spacing" textLength="101" x="845.75" y="597.3767">Examen_Fisico</text><line style="stroke:#33FF33;stroke-width:1.0;" x1="764.5" x2="1000.5" y1="606.53" y2="606.53"/><ellipse cx="774.5" cy="620.1784" fill="#282828" rx="3" ry="3" style="stroke:#33FF33;stroke-width:1.0;"/><text fill="#33FF33" font-family="Verdana" font-size="14" lengthAdjust="spacing" textLength="161" x="781.5" y="623.5251">id_examen_fisico: serial</text><line style="stroke:#33FF33;stroke-width:1.0;" x1="764.5" x2="1000.5" y1="630.8269" y2="630.8269"/><ellipse cx="774.5" cy="644.4753" fill="#282828" rx="3" ry="3" style="stroke:#33FF33;stroke-width:1.0;"/><text fill="#33FF33" font-family="Verdana" font-size="14" lengthAdjust="spacing" textLength="139" x="781.5" y="647.822">descripcion: varchar</text><ellipse cx="774.5" cy="660.7722" fill="#282828" rx="3" ry="3" style="stroke:#33FF33;stroke-width:1.0;"/><text fill="#33FF33" font-family="Verdana" font-size="14" lengthAdjust="spacing" textLength="214" x="781.5" y="664.1189">frecuencia_respiratoria: integer</text><ellipse cx="774.5" cy="677.0691" fill="#282828" rx="3" ry="3" style="stroke:#33FF33;stroke-width:1.0;"/><text fill="#33FF33" font-family="Verdana" font-size="14" lengthAdjust="spacing" textLength="209" x="781.5" y="680.4157">temperatura: double precision</text><ellipse cx="774.5" cy="693.3659" fill="#282828" rx="3" ry="3" style="stroke:#33FF33;stroke-width:1.0;"/><text fill="#33FF33" font-family="Verdana" font-size="14" lengthAdjust="spacing" textLength="192" x="781.5" y="696.7126">saturacion_oxigeno: integer</text><ellipse cx="774.5" cy="709.6628" fill="#282828" rx="3" ry="3" style="stroke:#33FF33;stroke-width:1.0;"/><text fill="#33FF33" font-family="Verdana" font-size="14" lengthAdjust="spacing" textLength="139" x="781.5" y="713.0095">glucometria: integer</text><ellipse cx="774.5" cy="725.9597" fill="#282828" rx="3" ry="3" style="stroke:#33FF33;stroke-width:1.0;"/><text fill="#33FF33" font-family="Verdana" font-size="14" lengthAdjust="spacing" textLength="194" x="781.5" y="729.3064">frecuencia_cardiaca: integer</text><ellipse cx="774.5" cy="742.2566" fill="#282828" rx="3" ry="3" style="stroke:#33FF33;stroke-width:1.0;"/><text fill="#33FF33" font-family="Verdana" font-size="14" lengthAdjust="spacing" textLength="163" x="781.5" y="745.6032">presion_arterial: integer</text></g><!--class Formulario--><g id="elem_Formulario"><rect codeLine="99" fill="#282828" height="92.8906" id="Formulario" rx="2.5" ry="2.5" style="stroke:#33FF33;stroke-width:1.0;" width="156" x="854.5" y="109.78"/><ellipse cx="892.75" cy="123.78" fill="#282828" rx="9" ry="9" style="stroke:#33FF33;stroke-width:1.0;"/><path d="M896.8594,129.78 L889.1406,129.78 L889.1406,117.3894 L896.8594,117.3894 L896.8594,119.5456 L891.5938,119.5456 L891.5938,122.2175 L896.3594,122.2175 L896.3594,124.3738 L891.5938,124.3738 L891.5938,127.6238 L896.8594,127.6238 L896.8594,129.78 Z " fill="#33FF33"/><text fill="#33FF33" font-family="Verdana" font-size="14" lengthAdjust="spacing" textLength="72" x="910.25" y="128.6267">Formulario</text><line style="stroke:#33FF33;stroke-width:1.0;" x1="855.5" x2="1009.5" y1="137.78" y2="137.78"/><ellipse cx="865.5" cy="151.4284" fill="#282828" rx="3" ry="3" style="stroke:#33FF33;stroke-width:1.0;"/><text fill="#33FF33" font-family="Verdana" font-size="14" lengthAdjust="spacing" textLength="132" x="872.5" y="154.7751">id_formulario: serial</text><line style="stroke:#33FF33;stroke-width:1.0;" x1="855.5" x2="1009.5" y1="162.0769" y2="162.0769"/><ellipse cx="865.5" cy="175.7253" fill="#282828" rx="3" ry="3" style="stroke:#33FF33;stroke-width:1.0;"/><text fill="#33FF33" font-family="Verdana" font-size="14" lengthAdjust="spacing" textLength="109" x="872.5" y="179.072">edicion: varchar</text><ellipse cx="865.5" cy="192.0222" fill="#282828" rx="3" ry="3" style="stroke:#33FF33;stroke-width:1.0;"/><text fill="#33FF33" font-family="Verdana" font-size="14" lengthAdjust="spacing" textLength="120" x="872.5" y="195.3689">fecha: timestamp</text></g><!--class Respuesta_Formulario--><g id="elem_Respuesta_Formulario"><rect codeLine="106" fill="#282828" height="76.5938" id="Respuesta_Formulario" rx="2.5" ry="2.5" style="stroke:#33FF33;stroke-width:1.0;" width="182" x="841.5" y="401.19"/><ellipse cx="854.5" cy="415.19" fill="#282828" rx="9" ry="9" style="stroke:#33FF33;stroke-width:1.0;"/><path d="M858.6094,421.19 L850.8906,421.19 L850.8906,408.7994 L858.6094,408.7994 L858.6094,410.9556 L853.3438,410.9556 L853.3438,413.6275 L858.1094,413.6275 L858.1094,415.7838 L853.3438,415.7838 L853.3438,419.0338 L858.6094,419.0338 L858.6094,421.19 Z " fill="#33FF33"/><text fill="#33FF33" font-family="Verdana" font-size="14" lengthAdjust="spacing" textLength="154" x="866.5" y="420.0367">Respuesta_Formulario</text><line style="stroke:#33FF33;stroke-width:1.0;" x1="842.5" x2="1022.5" y1="429.19" y2="429.19"/><ellipse cx="852.5" cy="442.8384" fill="#282828" rx="3" ry="3" style="stroke:#33FF33;stroke-width:1.0;"/><text fill="#33FF33" font-family="Verdana" font-size="14" lengthAdjust="spacing" textLength="113" x="859.5" y="446.1851">formulario: serial</text><ellipse cx="852.5" cy="459.1353" fill="#282828" rx="3" ry="3" style="stroke:#33FF33;stroke-width:1.0;"/><text fill="#33FF33" font-family="Verdana" font-size="14" lengthAdjust="spacing" textLength="105" x="859.5" y="462.482">paciente: serial</text><line style="stroke:#33FF33;stroke-width:1.0;" x1="842.5" x2="1022.5" y1="469.7838" y2="469.7838"/></g><!--link Usuario to Sesion--><g id="link_Usuario_Sesion"><path codeLine="111" d="M91.5,202.86 C91.5,254.06 91.5,319.56 91.5,374.68 " fill="none" id="Usuario-Sesion" style="stroke:#33FF33;stroke-width:1.0;"/><line style="stroke:#33FF33;stroke-width:1.0;" x1="87.5" x2="95.5" y1="198.86" y2="198.86"/><line style="stroke:#33FF33;stroke-width:1.0;" x1="87.5" x2="95.5" y1="201.86" y2="201.86"/><line style="stroke:#33FF33;stroke-width:1.0;" x1="91.5" x2="91.5" y1="202.86" y2="194.86"/><line style="stroke:#33FF33;stroke-width:1.0;" x1="91.5" x2="97.5" y1="384.68" y2="392.68"/><line style="stroke:#33FF33;stroke-width:1.0;" x1="91.5" x2="85.5" y1="384.68" y2="392.68"/><line style="stroke:#33FF33;stroke-width:1.0;" x1="91.5" x2="91.5" y1="384.68" y2="392.68"/><ellipse cx="91.5" cy="378.68" fill="none" rx="4" ry="4" style="stroke:#33FF33;stroke-width:1.0;"/></g><!--link Paciente to Antecedente_Paciente--><g id="link_Paciente_Antecedente_Paciente"><path codeLine="113" d="M512.5,308.74 C512.5,342.06 512.5,349.16 512.5,374.56 " fill="none" id="Paciente-Antecedente_Paciente" style="stroke:#33FF33;stroke-width:1.0;"/><line style="stroke:#33FF33;stroke-width:1.0;" x1="508.5" x2="516.5" y1="304.74" y2="304.74"/><line style="stroke:#33FF33;stroke-width:1.0;" x1="508.5" x2="516.5" y1="307.74" y2="307.74"/><line style="stroke:#33FF33;stroke-width:1.0;" x1="512.5" x2="512.5" y1="308.74" y2="300.74"/><line style="stroke:#33FF33;stroke-width:1.0;" x1="512.5" x2="518.5" y1="384.56" y2="392.56"/><line style="stroke:#33FF33;stroke-width:1.0;" x1="512.5" x2="506.5" y1="384.56" y2="392.56"/><line style="stroke:#33FF33;stroke-width:1.0;" x1="512.5" x2="512.5" y1="384.56" y2="392.56"/><ellipse cx="512.5" cy="378.56" fill="none" rx="4" ry="4" style="stroke:#33FF33;stroke-width:1.0;"/></g><!--link Paciente to Contacto_Emergencia--><g id="link_Paciente_Contacto_Emergencia"><path codeLine="114" d="M389.8543,299.6471 C364.7843,332.0471 349.8737,351.8944 331.4137,378.0444 " fill="none" id="Paciente-Contacto_Emergencia" style="stroke:#33FF33;stroke-width:1.0;"/><line style="stroke:#33FF33;stroke-width:1.0;" x1="389.1386" x2="395.4657" y1="294.0357" y2="298.9314"/><line style="stroke:#33FF33;stroke-width:1.0;" x1="387.3027" x2="393.6298" y1="296.4084" y2="301.3041"/><line style="stroke:#33FF33;stroke-width:1.0;" x1="389.8543" x2="394.75" y1="299.6471" y2="293.32"/><line style="stroke:#33FF33;stroke-width:1.0;" x1="332.3746" x2="325.839" y1="383.619" y2="379.0054"/><line style="stroke:#33FF33;stroke-width:1.0;" x1="334.1048" x2="327.5692" y1="381.1682" y2="376.5545"/><line style="stroke:#33FF33;stroke-width:1.0;" x1="331.4137" x2="326.8" y1="378.0444" y2="384.58"/></g><!--link Paciente to Contacto_Emergencia--><g id="link_Paciente_Contacto_Emergencia"><path codeLine="115" d="M410.3768,307.069 C387.2368,336.999 377.9574,348.9524 357.6374,373.1024 " fill="none" id="Paciente-Contacto_Emergencia-1" style="stroke:#33FF33;stroke-width:1.0;"/><line style="stroke:#33FF33;stroke-width:1.0;" x1="409.6589" x2="415.9879" y1="301.4579" y2="306.3511"/><line style="stroke:#33FF33;stroke-width:1.0;" x1="407.8239" x2="414.153" y1="303.8313" y2="308.7245"/><line style="stroke:#33FF33;stroke-width:1.0;" x1="410.3768" x2="415.27" y1="307.069" y2="300.74"/><line style="stroke:#33FF33;stroke-width:1.0;" x1="355.0621" x2="347.98" y1="376.1631" y2="384.58"/><ellipse cx="355.0621" cy="376.1631" fill="none" rx="4" ry="4" style="stroke:#33FF33;stroke-width:1.0;"/><line style="stroke:#33FF33;stroke-width:1.0;" x1="353.616" x2="347.4946" y1="384.0946" y2="378.944"/></g><!--link Paciente to Visita--><g id="link_Paciente_Visita"><path codeLine="117" d="M624.9605,307.1396 C640.3005,327.5896 639.99,327.16 653.91,345.72 " fill="none" id="Paciente-Visita" style="stroke:#33FF33;stroke-width:1.0;"/><line style="stroke:#33FF33;stroke-width:1.0;" x1="619.3604" x2="625.7601" y1="306.3401" y2="301.5396"/><line style="stroke:#33FF33;stroke-width:1.0;" x1="621.1606" x2="627.5603" y1="308.7399" y2="303.9394"/><line style="stroke:#33FF33;stroke-width:1.0;" x1="624.9605" x2="620.16" y1="307.1396" y2="300.74"/><line style="stroke:#33FF33;stroke-width:1.0;" x1="659.91" x2="669.51" y1="353.72" y2="356.52"/><line style="stroke:#33FF33;stroke-width:1.0;" x1="659.91" x2="659.91" y1="353.72" y2="363.72"/><line style="stroke:#33FF33;stroke-width:1.0;" x1="659.91" x2="664.71" y1="353.72" y2="360.12"/><ellipse cx="656.31" cy="348.92" fill="none" rx="4" ry="4" style="stroke:#33FF33;stroke-width:1.0;"/></g><!--link Visita to Examen_Fisico--><g id="link_Visita_Examen_Fisico"><path codeLine="118" d="M783.7364,525.4366 C797.3464,544.6366 798.6776,546.5283 812.5476,566.0683 " fill="none" id="Visita-Examen_Fisico" style="stroke:#33FF33;stroke-width:1.0;"/><line style="stroke:#33FF33;stroke-width:1.0;" x1="778.1599" x2="784.6865" y1="524.4865" y2="519.8601"/><line style="stroke:#33FF33;stroke-width:1.0;" x1="779.8948" x2="786.4214" y1="526.934" y2="522.3076"/><line style="stroke:#33FF33;stroke-width:1.0;" x1="783.7364" x2="779.11" y1="525.4366" y2="518.91"/><line style="stroke:#33FF33;stroke-width:1.0;" x1="814.8629" x2="821.23" y1="569.3301" y2="578.3"/><ellipse cx="814.8629" cy="569.3301" fill="none" rx="4" ry="4" style="stroke:#33FF33;stroke-width:1.0;"/><line style="stroke:#33FF33;stroke-width:1.0;" x1="822.1765" x2="815.6529" y1="572.7229" y2="577.3535"/></g><!--link Paciente to Respuesta_Formulario--><g id="link_Paciente_Respuesta_Formulario"><path codeLine="120" d="M637.1579,236.4584 C695.9279,274.2684 761.08,316.92 824.5,360.45 C843.29,373.34 857.1253,383.1713 875.0253,396.1613 " fill="none" id="Paciente-Respuesta_Formulario" style="stroke:#33FF33;stroke-width:1.0;"/><line style="stroke:#33FF33;stroke-width:1.0;" x1="631.6297" x2="635.9582" y1="237.6582" y2="230.9303"/><line style="stroke:#33FF33;stroke-width:1.0;" x1="634.1527" x2="638.4811" y1="239.2813" y2="232.5534"/><line style="stroke:#33FF33;stroke-width:1.0;" x1="637.1579" x2="630.43" y1="236.4584" y2="232.13"/><line style="stroke:#33FF33;stroke-width:1.0;" x1="875.0253" x2="885.024" y1="396.1613" y2="396.0039"/><line style="stroke:#33FF33;stroke-width:1.0;" x1="875.0253" x2="877.976" y1="396.1613" y2="405.7161"/><line style="stroke:#33FF33;stroke-width:1.0;" x1="875.0253" x2="881.5" y1="396.1613" y2="400.86"/><line style="stroke:#33FF33;stroke-width:1.0;" x1="875.7559" x2="871.0572" y1="391.7493" y2="398.224"/></g><!--link Formulario to Respuesta_Formulario--><g id="link_Formulario_Respuesta_Formulario"><path codeLine="121" d="M932.5,211.04 C932.5,266.14 932.5,341.6 932.5,392.8 " fill="none" id="Formulario-Respuesta_Formulario" style="stroke:#33FF33;stroke-width:1.0;"/><line style="stroke:#33FF33;stroke-width:1.0;" x1="928.5" x2="936.5" y1="207.04" y2="207.04"/><line style="stroke:#33FF33;stroke-width:1.0;" x1="928.5" x2="936.5" y1="210.04" y2="210.04"/><line style="stroke:#33FF33;stroke-width:1.0;" x1="932.5" x2="932.5" y1="211.04" y2="203.04"/><line style="stroke:#33FF33;stroke-width:1.0;" x1="932.5" x2="938.5" y1="392.8" y2="400.8"/><line style="stroke:#33FF33;stroke-width:1.0;" x1="932.5" x2="926.5" y1="392.8" y2="400.8"/><line style="stroke:#33FF33;stroke-width:1.0;" x1="932.5" x2="932.5" y1="392.8" y2="400.8"/><line style="stroke:#33FF33;stroke-width:1.0;" x1="936.5" x2="928.5" y1="390.8" y2="390.8"/></g><!--link Antecedente_Paciente to Antecedente--><g id="link_Antecedente_Paciente_Antecedente"><path codeLine="123" d="M460.1062,492.0195 C420.7662,530.7095 376.1531,574.5697 336.8331,613.2497 " fill="none" id="Antecedente_Paciente-Antecedente" style="stroke:#33FF33;stroke-width:1.0;"/><line style="stroke:#33FF33;stroke-width:1.0;" x1="460.1062" x2="461.6028" y1="492.0195" y2="482.1322"/><line style="stroke:#33FF33;stroke-width:1.0;" x1="460.1062" x2="470.0172" y1="492.0195" y2="490.6878"/><line style="stroke:#33FF33;stroke-width:1.0;" x1="460.1062" x2="465.81" y1="492.0195" y2="486.41"/><line style="stroke:#33FF33;stroke-width:1.0;" x1="455.8755" x2="461.485" y1="490.57" y2="496.2738"/><line style="stroke:#33FF33;stroke-width:1.0;" x1="336.7867" x2="331.1764" y1="618.9064" y2="613.2033"/><line style="stroke:#33FF33;stroke-width:1.0;" x1="338.9253" x2="333.3151" y1="616.8026" y2="611.0995"/><line style="stroke:#33FF33;stroke-width:1.0;" x1="336.8331" x2="331.13" y1="613.2497" y2="618.86"/></g><!--link Antecedente_Paciente to Tratamiento--><g id="link_Antecedente_Paciente_Tratamiento"><path codeLine="124" d="M518.7422,494.3567 C523.2322,533.0467 527.7796,572.2331 532.2596,610.9131 " fill="none" id="Antecedente_Paciente-Tratamiento" style="stroke:#33FF33;stroke-width:1.0;"/><line style="stroke:#33FF33;stroke-width:1.0;" x1="518.7422" x2="511.86" y1="494.3567" y2="487.1017"/><line style="stroke:#33FF33;stroke-width:1.0;" x1="518.7422" x2="523.78" y1="494.3567" y2="485.7183"/><line style="stroke:#33FF33;stroke-width:1.0;" x1="518.7422" x2="517.82" y1="494.3567" y2="486.41"/><line style="stroke:#33FF33;stroke-width:1.0;" x1="514.9994" x2="522.9461" y1="496.8044" y2="495.8822"/><line style="stroke:#33FF33;stroke-width:1.0;" x1="536.6932" x2="528.7464" y1="614.4264" y2="615.3468"/><line style="stroke:#33FF33;stroke-width:1.0;" x1="536.3481" x2="528.4012" y1="611.4463" y2="612.3667"/><line style="stroke:#33FF33;stroke-width:1.0;" x1="532.2596" x2="533.18" y1="610.9131" y2="618.86"/></g><!--link Visita to Tratamiento_Visita--><g id="link_Visita_Tratamiento_Visita"><path codeLine="126" d="M720.8758,526.6163 C718.0658,618.6163 714.3081,741.6483 712.1981,810.9083 " fill="none" id="Visita-Tratamiento_Visita" style="stroke:#33FF33;stroke-width:1.0;"/><line style="stroke:#33FF33;stroke-width:1.0;" x1="716.9997" x2="724.996" y1="522.496" y2="522.7403"/><line style="stroke:#33FF33;stroke-width:1.0;" x1="716.9082" x2="724.9044" y1="525.4946" y2="525.7389"/><line style="stroke:#33FF33;stroke-width:1.0;" x1="720.8758" x2="721.12" y1="526.6163" y2="518.62"/><line style="stroke:#33FF33;stroke-width:1.0;" x1="711.8936" x2="717.6472" y1="820.9037" y2="829.0827"/><line style="stroke:#33FF33;stroke-width:1.0;" x1="711.8936" x2="705.6528" y1="820.9037" y2="828.7173"/><line style="stroke:#33FF33;stroke-width:1.0;" x1="711.8936" x2="711.65" y1="820.9037" y2="828.9"/><ellipse cx="712.0763" cy="814.9065" fill="none" rx="4" ry="4" style="stroke:#33FF33;stroke-width:1.0;"/></g><!--link Tratamiento to Tratamiento_Visita--><g id="link_Tratamiento_Tratamiento_Visita"><path codeLine="127" d="M583.1798,718.6125 C613.5298,753.8625 637.9758,782.2591 666.3958,815.2691 " fill="none" id="Tratamiento-Tratamiento_Visita" style="stroke:#33FF33;stroke-width:1.0;"/><line style="stroke:#33FF33;stroke-width:1.0;" x1="577.5386" x2="583.6011" y1="718.1911" y2="712.9714"/><line style="stroke:#33FF33;stroke-width:1.0;" x1="579.496" x2="585.5586" y1="720.4646" y2="715.2448"/><line style="stroke:#33FF33;stroke-width:1.0;" x1="583.1798" x2="577.96" y1="718.6125" y2="712.55"/><line style="stroke:#33FF33;stroke-width:1.0;" x1="672.9204" x2="682.687" y1="822.8474" y2="824.9953"/><line style="stroke:#33FF33;stroke-width:1.0;" x1="672.9204" x2="673.593" y1="822.8474" y2="832.8247"/><line style="stroke:#33FF33;stroke-width:1.0;" x1="672.9204" x2="678.14" y1="822.8474" y2="828.91"/><ellipse cx="669.0057" cy="818.3004" fill="none" rx="4" ry="4" style="stroke:#33FF33;stroke-width:1.0;"/></g><!--link Tratamiento to Detalle_Farmacologia--><g id="link_Tratamiento_Detalle_Farmacologia"><path codeLine="129" d="M524.0239,720.2732 C515.9639,750.1132 511.4039,766.9496 502.9439,798.2496 " fill="none" id="Tratamiento-Detalle_Farmacologia" style="stroke:#33FF33;stroke-width:1.0;"/><line style="stroke:#33FF33;stroke-width:1.0;" x1="521.2053" x2="528.9286" y1="715.3686" y2="717.4547"/><line style="stroke:#33FF33;stroke-width:1.0;" x1="520.4231" x2="528.1463" y1="718.2648" y2="720.3509"/><line style="stroke:#33FF33;stroke-width:1.0;" x1="524.0239" x2="526.11" y1="720.2732" y2="712.55"/><line style="stroke:#33FF33;stroke-width:1.0;" x1="501.9002" x2="499.03" y1="802.111" y2="812.73"/><ellipse cx="501.9002" cy="802.111" fill="none" rx="4" ry="4" style="stroke:#33FF33;stroke-width:1.0;"/><line style="stroke:#33FF33;stroke-width:1.0;" x1="503.9351" x2="496.2123" y1="809.9123" y2="807.8249"/></g><!--SRC=[bLN9Rjmm33t7N-5U2yoXFUPMjCcvw7OL68dZ2BL4WvBJAMRoxwN7cspBIJgtuV8U-KZHx-8ZEYmrnqF5YBueq4SR_vO_GmjigJmNfVpUbsr0zk3mjdm2re_0Wxs14FuGczd-F65yns39Jn2HVgDVvXyEX-BcPXzTCq940O_MOOZWcWJ-C_a8EfAwSyWLUcrXuh96wS5zMmguXNeYx2CykGVEjCE2Za7JsXEnnYDvoZNw5RJjqYPw3UmnRdljlHYKDDCQ2v9pMpuGrGX-KLTOqqE3TMqDRHm1Jr9JgXanunlA7zEhbZTMgP-HGP4osCIrzuZoHtbfsdLjIxQHAOr4jY4Lm5TRSOrbr5fMOktm545Prn37NfA8fpYrCqmPfoch3ukPvY8-JX7pb3u9j4RJ3Kfj9jOCXWMoo3xdxEnHBuRrLXeRXCXIfgjfC49TeteTtSWgicroedL2vvRn1uCybEjWKiuuc_-NQopt2En0KqsLXOo-NuQm-oGirtKMPbKA1IkRRgXzgB5iP6riTqh6M-Ij0S7hWrQxAR5jlmE3tugw5Uuef7u9S9pBVBh-NIr1JhePROKWZMP0vjPs5irHj4-KVMdfzHiV4bIUGhJTcKhU2kCH-TfyOiQJ75QlZbAKpjL_r_llh_wqZNpYc_SpcOJSiyQAYCHTPUD0niFa6ZariMNO7NYukZiIHIShJvpMA5NTQd8OCmH97NBMH3gz2H6-Zaq1nskJkQMv9tPjlVWcYaR7oReZ41gR5MSzs9decuZLTbQLeTpXowoL08xVyClbSA3py3akYkds3VRSNLm6NIwvZ-qAA1-pOUkVIp6ycY5piOEhdCivAqcHgFDIM94z-yzzLudlnRZaOXIBqi-POrAa5tW_QXjsoPxGuXy0]--></g></svg>