<?xml version="1.0" encoding="us-ascii" standalone="no"?><svg xmlns="http://www.w3.org/2000/svg" xmlns:xlink="http://www.w3.org/1999/xlink" contentStyleType="text/css" height="266px" preserveAspectRatio="none" style="width:441px;height:266px;background:#282828;" version="1.1" viewBox="0 0 441 266" width="441px" zoomAndPan="magnify"><defs/><g><rect fill="#282828" height="266" style="stroke:none;stroke-width:1.0;" width="441" x="0" y="0"/><line style="stroke:#33FF33;stroke-width:1.0;" x1="46" x2="46" y1="36.2969" y2="231.0938"/><line style="stroke:#33FF33;stroke-width:1.0;" x1="245" x2="245" y1="36.2969" y2="231.0938"/><line style="stroke:#33FF33;stroke-width:1.0;" x1="395.5" x2="395.5" y1="36.2969" y2="231.0938"/><rect fill="#282828" height="30.2969" rx="2.5" ry="2.5" style="stroke:#33FF33;stroke-width:1.0;" width="53" x="20" y="5"/><text fill="#33FF33" font-family="Verdana" font-size="14" lengthAdjust="spacing" textLength="39" x="27" y="24.9951">Client</text><rect fill="#282828" height="30.2969" rx="2.5" ry="2.5" style="stroke:#33FF33;stroke-width:1.0;" width="53" x="20" y="230.0938"/><text fill="#33FF33" font-family="Verdana" font-size="14" lengthAdjust="spacing" textLength="39" x="27" y="250.0889">Client</text><rect fill="#282828" height="30.2969" rx="2.5" ry="2.5" style="stroke:#33FF33;stroke-width:1.0;" width="75" x="208" y="5"/><text fill="#33FF33" font-family="Verdana" font-size="14" lengthAdjust="spacing" textLength="61" x="215" y="24.9951">Backend</text><rect fill="#282828" height="30.2969" rx="2.5" ry="2.5" style="stroke:#33FF33;stroke-width:1.0;" width="75" x="208" y="230.0938"/><text fill="#33FF33" font-family="Verdana" font-size="14" lengthAdjust="spacing" textLength="61" x="215" y="250.0889">Backend</text><rect fill="#282828" height="30.2969" rx="2.5" ry="2.5" style="stroke:#33FF33;stroke-width:1.0;" width="80" x="355.5" y="5"/><text fill="#33FF33" font-family="Verdana" font-size="14" lengthAdjust="spacing" textLength="66" x="362.5" y="24.9951">Database</text><rect fill="#282828" height="30.2969" rx="2.5" ry="2.5" style="stroke:#33FF33;stroke-width:1.0;" width="80" x="355.5" y="230.0938"/><text fill="#33FF33" font-family="Verdana" font-size="14" lengthAdjust="spacing" textLength="66" x="362.5" y="250.0889">Database</text><polygon fill="#33FF33" points="233.5,63.4297,243.5,67.4297,233.5,71.4297,237.5,67.4297" style="stroke:#33FF33;stroke-width:1.0;"/><line style="stroke:#33FF33;stroke-width:1.0;" x1="46.5" x2="239.5" y1="67.4297" y2="67.4297"/><text fill="#33FF33" font-family="Verdana" font-size="13" lengthAdjust="spacing" textLength="175" x="53.5" y="62.3638">/login: username, password</text><polygon fill="#33FF33" points="383.5,92.5625,393.5,96.5625,383.5,100.5625,387.5,96.5625" style="stroke:#33FF33;stroke-width:1.0;"/><line style="stroke:#33FF33;stroke-width:1.0;" x1="245.5" x2="389.5" y1="96.5625" y2="96.5625"/><text fill="#33FF33" font-family="Verdana" font-size="13" lengthAdjust="spacing" textLength="107" x="252.5" y="91.4966">Query username</text><polygon fill="#33FF33" points="256.5,121.6953,246.5,125.6953,256.5,129.6953,252.5,125.6953" style="stroke:#33FF33;stroke-width:1.0;"/><line style="stroke:#33FF33;stroke-width:1.0;stroke-dasharray:2.0,2.0;" x1="250.5" x2="394.5" y1="125.6953" y2="125.6953"/><text fill="#33FF33" font-family="Verdana" font-size="13" lengthAdjust="spacing" textLength="111" x="262.5" y="120.6294">hashed password</text><polygon fill="#33FF33" points="383.5,150.8281,393.5,154.8281,383.5,158.8281,387.5,154.8281" style="stroke:#33FF33;stroke-width:1.0;"/><line style="stroke:#33FF33;stroke-width:1.0;" x1="245.5" x2="389.5" y1="154.8281" y2="154.8281"/><text fill="#33FF33" font-family="Verdana" font-size="13" lengthAdjust="spacing" textLength="126" x="252.5" y="149.7622">Insert sessionToken</text><polygon fill="#33FF33" points="256.5,179.9609,246.5,183.9609,256.5,187.9609,252.5,183.9609" style="stroke:#33FF33;stroke-width:1.0;"/><line style="stroke:#33FF33;stroke-width:1.0;stroke-dasharray:2.0,2.0;" x1="250.5" x2="394.5" y1="183.9609" y2="183.9609"/><text fill="#33FF33" font-family="Verdana" font-size="13" lengthAdjust="spacing" textLength="114" x="262.5" y="178.895">dateOfGeneration</text><polygon fill="#33FF33" points="57.5,209.0938,47.5,213.0938,57.5,217.0938,53.5,213.0938" style="stroke:#33FF33;stroke-width:1.0;"/><line style="stroke:#33FF33;stroke-width:1.0;stroke-dasharray:2.0,2.0;" x1="51.5" x2="244.5" y1="213.0938" y2="213.0938"/><text fill="#33FF33" font-family="Verdana" font-size="13" lengthAdjust="spacing" textLength="86" x="63.5" y="208.0278">sessionToken</text><!--SRC=[XS-x2i9048NXVfzYx5tijx1GGQn4o0kCsMCIJ6PbPuBuzgvu8HPYVJv-E3DhCO3gRBx9W3YtxZk8aL_IYkip90PQzAdf9D2eoC83vdHXrMlAqRaNUlWD6nzP4UWm8jy-tBq7yjDgozeY_aljf5IC5AfTaYeLyQCNsR0_RI78RCLEWeKzRuNlq1q0]--></g></svg>